<svg width="621" height="339" viewBox="0 0 621 339" fill="none" xmlns="http://www.w3.org/2000/svg">
<rect width="621" height="339" fill="white"/>
<path class="uper" d="M43.6875 101.188C45.0208 101.229 46.1875 101.25 47.1875 101.25C48.1875 101.208 49 101.188 49.625 101.188H51.4375C51.8958 101.146 52.4583 101.125 53.125 101.125C53.7083 101.125 54.4167 101.125 55.25 101.125C56.0833 101.125 57.0417 101.146 58.125 101.188C58.4583 102.354 58.8333 103.5 59.25 104.625C59.7083 105.708 60.1042 106.688 60.4375 107.562C60.8542 108.604 61.2708 109.583 61.6875 110.5C62.1042 111.417 62.6042 112.521 63.1875 113.812C63.6875 114.896 64.2917 116.229 65 117.812C65.7083 119.354 66.5417 121.125 67.5 123.125C67.9583 121.833 68.375 120.646 68.75 119.562C69.1667 118.479 69.5208 117.542 69.8125 116.75C70.1458 115.833 70.4167 115 70.625 114.25C70.8333 113.5 71.0625 112.583 71.3125 111.5C71.5208 110.583 71.75 109.479 72 108.188C72.2917 106.896 72.5833 105.396 72.875 103.688C74.0833 103.688 75.1667 103.688 76.125 103.688C77.0833 103.688 77.9167 103.667 78.625 103.625C79.4167 103.625 80.125 103.604 80.75 103.562C81.4167 103.562 82.3125 103.521 83.4375 103.438C84.3958 103.354 85.6667 103.292 87.25 103.25C88.875 103.167 90.875 103.062 93.25 102.938C92.375 103.562 91.6667 104.188 91.125 104.812C90.625 105.396 90.2292 105.917 89.9375 106.375C89.6042 106.917 89.3958 107.438 89.3125 107.938C89.2292 108.354 89.1458 109.312 89.0625 110.812C89.0208 112.312 88.9583 114.104 88.875 116.188C88.8333 118.229 88.7917 120.417 88.75 122.75C88.75 125.083 88.7708 127.292 88.8125 129.375C88.8542 131.458 88.9167 133.271 89 134.812C89.125 136.312 89.2917 137.271 89.5 137.688C89.7917 138.188 90.1875 138.771 90.6875 139.438C91.1458 140.021 91.7292 140.688 92.4375 141.438C93.1875 142.188 94.1667 143.021 95.375 143.938C93.4583 144.021 91.8542 144.083 90.5625 144.125C89.3125 144.167 88.2708 144.208 87.4375 144.25C86.4792 144.292 85.7083 144.312 85.125 144.312C84.5 144.312 83.6458 144.333 82.5625 144.375C81.6042 144.417 80.3333 144.479 78.75 144.562C77.1667 144.604 75.125 144.688 72.625 144.812C73.2083 144.146 73.75 143.479 74.25 142.812C74.75 142.146 75.1667 141.542 75.5 141C75.9167 140.375 76.2708 139.771 76.5625 139.188C76.8542 138.396 77.0833 136.958 77.25 134.875C77.4167 133.083 77.5417 130.521 77.625 127.188C77.7083 123.812 77.7083 119.292 77.625 113.625C76.8333 114.917 76.125 116.208 75.5 117.5C74.9167 118.75 74.3958 119.896 73.9375 120.938C73.4375 122.146 72.9792 123.312 72.5625 124.438C72.1458 125.604 71.7083 126.896 71.25 128.312C70.8333 129.521 70.3333 130.958 69.75 132.625C69.2083 134.292 68.5833 136.125 67.875 138.125L65.5 138.25C65.1667 136.583 64.8333 135.083 64.5 133.75C64.1667 132.375 63.8333 131.208 63.5 130.25C63.125 129.125 62.75 128.125 62.375 127.25C61.9583 126.375 61.5 125.396 61 124.312C60.5417 123.396 59.9792 122.312 59.3125 121.062C58.6875 119.812 57.9583 118.417 57.125 116.875C56.7083 121.125 56.4583 124.583 56.375 127.25C56.2917 129.875 56.2917 131.917 56.375 133.375C56.4583 135.125 56.5833 136.396 56.75 137.188C57 137.896 57.3958 138.688 57.9375 139.562C58.3958 140.312 59.0208 141.208 59.8125 142.25C60.6458 143.25 61.7083 144.375 63 145.625C62.0833 145.625 61.125 145.625 60.125 145.625C59.125 145.625 58.2083 145.646 57.375 145.688C56.375 145.729 55.3958 145.75 54.4375 145.75C53.4375 145.792 52.2708 145.854 50.9375 145.938C49.7708 146.021 48.375 146.104 46.75 146.188C45.125 146.271 43.25 146.417 41.125 146.625C42.0417 146.042 42.7917 145.479 43.375 144.938C43.9583 144.354 44.4167 143.833 44.75 143.375C45.1667 142.833 45.4792 142.292 45.6875 141.75C45.8125 141.417 45.9167 140.688 46 139.562C46.125 138.438 46.2292 137.062 46.3125 135.438C46.4375 133.812 46.5208 132 46.5625 130C46.6458 128 46.7083 125.979 46.75 123.938C46.8333 121.854 46.8958 119.833 46.9375 117.875C46.9792 115.875 47 114.083 47 112.5C47.0417 110.875 47.0625 109.521 47.0625 108.438C47.0625 107.354 47.0625 106.667 47.0625 106.375C46.9375 105.75 46.75 105.125 46.5 104.5C46.2917 103.958 45.9583 103.396 45.5 102.812C45.0417 102.229 44.4375 101.688 43.6875 101.188ZM99.4375 120.688C99.6458 120.438 99.7708 119.979 99.8125 119.312C99.8958 118.604 100.062 117.812 100.312 116.938C100.604 116.062 101.083 115.146 101.75 114.188C102.417 113.229 103.5 112.333 105 111.5C106.458 110.667 107.875 110.167 109.25 110C110.625 109.833 111.938 109.896 113.188 110.188C114.438 110.479 115.604 110.938 116.688 111.562C117.812 112.188 118.833 112.875 119.75 113.625C120.375 114.125 120.875 114.854 121.25 115.812C121.625 116.729 121.917 117.771 122.125 118.938C122.333 120.104 122.479 121.333 122.562 122.625C122.688 123.875 122.771 125.104 122.812 126.312C122.854 127.479 122.875 128.562 122.875 129.562C122.917 130.521 123 131.312 123.125 131.938C123.292 132.854 123.583 133.646 124 134.312C124.417 134.938 124.875 135.479 125.375 135.938C125.875 136.354 126.375 136.688 126.875 136.938C127.375 137.188 127.812 137.375 128.188 137.5C128.438 137.625 128.667 137.708 128.875 137.75C129.292 137.917 129.583 137.917 129.75 137.75C129.5 138.333 129.271 138.833 129.062 139.25C128.854 139.667 128.688 140.021 128.562 140.312C128.396 140.646 128.25 140.917 128.125 141.125C128 141.375 127.854 141.604 127.688 141.812C127.562 142.021 127.396 142.25 127.188 142.5C126.979 142.75 126.771 143.021 126.562 143.312C126.021 143.104 125.5 142.854 125 142.562C124.542 142.271 124.125 142 123.75 141.75C123.292 141.458 122.875 141.167 122.5 140.875C122.125 140.583 121.771 140.25 121.438 139.875C121.146 139.542 120.833 139.188 120.5 138.812C120.208 138.438 119.958 138.021 119.75 137.562C119.5 138.104 118.896 138.875 117.938 139.875C117.021 140.875 115.812 141.792 114.312 142.625C112.812 143.417 111.062 143.979 109.062 144.312C107.104 144.646 104.938 144.417 102.562 143.625C101.521 143.292 100.542 142.812 99.625 142.188C98.7083 141.521 97.9167 140.729 97.25 139.812C96.625 138.896 96.1667 137.854 95.875 136.688C95.625 135.479 95.6458 134.146 95.9375 132.688C96.2292 131.229 96.75 130 97.5 129C98.25 128 99.1458 127.188 100.188 126.562C101.229 125.938 102.396 125.458 103.688 125.125C104.979 124.792 106.312 124.562 107.688 124.438C108.771 124.396 109.854 124.458 110.938 124.625C111.854 124.792 112.812 125.104 113.812 125.562C114.812 125.979 115.667 126.625 116.375 127.5C116.333 125.292 116.25 123.542 116.125 122.25C116.042 120.917 115.958 119.896 115.875 119.188C115.708 118.354 115.562 117.771 115.438 117.438C115.229 117.146 115 116.812 114.75 116.438C114.542 116.062 114.271 115.729 113.938 115.438C113.604 115.104 113.188 114.833 112.688 114.625C112.188 114.417 111.604 114.333 110.938 114.375C110.229 114.417 109.667 114.604 109.25 114.938C108.833 115.271 108.5 115.667 108.25 116.125C108.042 116.542 107.917 117 107.875 117.5C107.833 118 107.854 118.438 107.938 118.812C108.021 119.062 108.146 119.333 108.312 119.625C108.479 119.875 108.708 120.146 109 120.438C109.292 120.729 109.688 120.979 110.188 121.188C109.229 121.312 108.375 121.417 107.625 121.5C106.875 121.542 106.229 121.604 105.688 121.688C105.062 121.771 104.521 121.833 104.062 121.875C103.604 121.917 103.062 122 102.438 122.125C101.896 122.208 101.229 122.312 100.438 122.438C99.6458 122.562 98.7292 122.729 97.6875 122.938C97.9375 122.646 98.1667 122.375 98.375 122.125C98.5833 121.833 98.7708 121.583 98.9375 121.375C99.1042 121.125 99.2708 120.896 99.4375 120.688ZM108.812 128.125C108.062 128.167 107.312 128.354 106.562 128.688C105.812 128.979 105.146 129.417 104.562 130C103.979 130.542 103.479 131.188 103.062 131.938C102.688 132.646 102.5 133.438 102.5 134.312C102.5 135.188 102.708 135.958 103.125 136.625C103.583 137.25 104.167 137.771 104.875 138.188C105.625 138.604 106.417 138.854 107.25 138.938C108.125 139.021 108.979 138.938 109.812 138.688C110.604 138.396 111.354 137.938 112.062 137.312C112.771 136.646 113.375 135.938 113.875 135.188C114.375 134.396 114.729 133.625 114.938 132.875C115.146 132.083 115.167 131.438 115 130.938C114.667 129.854 113.917 129.104 112.75 128.688C111.583 128.229 110.271 128.042 108.812 128.125ZM128.5 100.938C128.958 101.146 129.5 101.292 130.125 101.375C130.792 101.458 131.417 101.5 132 101.5C132.708 101.5 133.438 101.479 134.188 101.438C134.938 101.396 135.854 101.312 136.938 101.188C137.812 101.104 138.896 101 140.188 100.875C141.479 100.75 142.917 100.583 144.5 100.375C143.917 100.667 143.417 100.979 143 101.312C142.583 101.646 142.229 101.979 141.938 102.312C141.604 102.688 141.333 103.062 141.125 103.438C140.833 103.938 140.438 104.812 139.938 106.062C139.479 107.271 139 108.625 138.5 110.125C138.042 111.625 137.625 113.146 137.25 114.688C136.917 116.229 136.729 117.542 136.688 118.625C136.646 119.542 136.604 120.583 136.562 121.75C136.521 122.75 136.479 123.979 136.438 125.438C136.396 126.896 136.354 128.562 136.312 130.438C139.312 128.271 141.625 126.542 143.25 125.25C144.875 123.917 146.062 122.896 146.812 122.188C147.688 121.396 148.208 120.833 148.375 120.5C148.333 120.25 148.229 119.979 148.062 119.688C147.854 119.438 147.562 119.146 147.188 118.812C146.812 118.479 146.25 118.104 145.5 117.688C146.583 117.812 147.521 117.896 148.312 117.938C149.146 117.979 149.854 118.021 150.438 118.062C151.104 118.104 151.688 118.104 152.188 118.062C152.729 118.062 153.396 118.042 154.188 118C155.562 117.958 157.688 117.896 160.562 117.812C157.771 119.271 155.562 120.521 153.938 121.562C153.021 122.146 152.208 122.688 151.5 123.188C150.792 123.729 150.062 124.292 149.312 124.875C148.646 125.375 147.875 125.958 147 126.625C146.167 127.292 145.333 128 144.5 128.75C145.958 131.125 147.229 133.083 148.312 134.625C149.438 136.167 150.375 137.417 151.125 138.375C152 139.5 152.771 140.396 153.438 141.062C154.104 141.688 154.979 142.396 156.062 143.188C156.979 143.896 158.167 144.729 159.625 145.688C161.125 146.604 162.938 147.667 165.062 148.875C163.979 148.667 162.938 148.521 161.938 148.438C160.938 148.396 160.083 148.396 159.375 148.438C158.5 148.479 157.708 148.562 157 148.688C156.25 148.854 155.417 149.062 154.5 149.312C153.708 149.521 152.771 149.792 151.688 150.125C150.646 150.5 149.5 150.979 148.25 151.562C149.042 150.979 149.625 150.417 150 149.875C150.417 149.375 150.708 148.958 150.875 148.625C151.042 148.208 151.104 147.854 151.062 147.562C150.854 147.146 150.375 146.292 149.625 145C148.917 143.917 147.875 142.333 146.5 140.25C145.125 138.167 143.167 135.333 140.625 131.75C140.5 131.792 140.292 131.917 140 132.125C139.75 132.333 139.375 132.625 138.875 133C138.375 133.333 137.708 133.833 136.875 134.5L138.562 145.438C138.188 145.604 137.771 145.75 137.312 145.875C136.896 146 136.5 146.104 136.125 146.188C135.667 146.312 135.208 146.396 134.75 146.438C134.292 146.479 133.75 146.562 133.125 146.688C132.583 146.771 131.938 146.875 131.188 147C130.438 147.167 129.583 147.354 128.625 147.562C129.167 147.188 129.604 146.75 129.938 146.25C130.271 145.792 130.542 145.354 130.75 144.938C130.958 144.479 131.146 144 131.312 143.5C131.396 143.083 131.479 142 131.562 140.25C131.688 138.5 131.792 136.417 131.875 134C131.958 131.542 132.021 128.917 132.062 126.125C132.146 123.333 132.188 120.708 132.188 118.25C132.188 115.75 132.167 113.583 132.125 111.75C132.083 109.875 132 108.667 131.875 108.125C131.667 107.458 131.417 106.75 131.125 106C130.875 105.333 130.521 104.583 130.062 103.75C129.646 102.875 129.125 101.938 128.5 100.938ZM174.562 135.938C175.729 135.938 176.812 135.812 177.812 135.562C178.646 135.354 179.438 135.021 180.188 134.562C180.979 134.062 181.5 133.333 181.75 132.375C182.583 132.542 183.292 132.688 183.875 132.812C184.458 132.896 184.958 132.979 185.375 133.062C185.833 133.188 186.229 133.271 186.562 133.312C186.896 133.396 187.292 133.479 187.75 133.562C188.167 133.646 188.667 133.75 189.25 133.875C189.875 133.958 190.604 134.083 191.438 134.25C190.812 134.167 190.167 134.229 189.5 134.438C188.875 134.646 188.271 134.875 187.688 135.125C187.021 135.417 186.396 135.771 185.812 136.188C185.438 136.438 185 136.812 184.5 137.312C184.042 137.812 183.375 138.292 182.5 138.75C181.625 139.208 180.458 139.604 179 139.938C177.583 140.229 175.75 140.333 173.5 140.25C170.792 140.167 168.521 139.688 166.688 138.812C164.854 137.896 163.375 136.792 162.25 135.5C161.125 134.167 160.312 132.729 159.812 131.188C159.312 129.646 159.042 128.208 159 126.875C158.958 125.542 159.354 124.146 160.188 122.688C161.021 121.229 162.188 119.896 163.688 118.688C165.229 117.479 167.083 116.5 169.25 115.75C171.417 114.958 173.792 114.562 176.375 114.562C177.875 114.562 179.25 114.75 180.5 115.125C181.792 115.458 182.958 115.917 184 116.5C185.083 117.083 186.021 117.75 186.812 118.5C187.604 119.208 188.271 119.938 188.812 120.688C189.354 121.479 189.812 122.312 190.188 123.188C190.521 123.938 190.792 124.792 191 125.75C191.208 126.708 191.271 127.688 191.188 128.688C188.021 128.771 185.458 128.833 183.5 128.875C181.583 128.917 180.083 128.938 179 128.938H176.188H174.062C173.312 128.938 172.333 128.958 171.125 129C169.917 129.042 168.438 129.104 166.688 129.188C166.896 130.854 167.417 132.146 168.25 133.062C169.125 133.938 170.042 134.604 171 135.062C172.083 135.562 173.271 135.854 174.562 135.938ZM168.938 124.688C170.271 124.771 171.375 124.833 172.25 124.875C173.167 124.917 173.917 124.958 174.5 125C175.125 125.042 175.625 125.062 176 125.062H177.562C178.604 125.062 180.542 125 183.375 124.875C183.25 123.042 182.854 121.646 182.188 120.688C181.562 119.729 180.896 119.021 180.188 118.562C179.354 118.062 178.438 117.771 177.438 117.688C174.729 117.729 172.708 118.292 171.375 119.375C170.083 120.458 169.271 122.229 168.938 124.688ZM213.875 102.938C215.292 103.104 216.479 103.229 217.438 103.312C218.438 103.354 219.25 103.417 219.875 103.5C220.625 103.583 221.208 103.625 221.625 103.625C222.083 103.667 222.771 103.646 223.688 103.562C224.479 103.479 225.542 103.375 226.875 103.25C228.25 103.125 230 102.938 232.125 102.688C231.167 103.521 230.396 104.333 229.812 105.125C229.271 105.875 228.854 106.542 228.562 107.125C228.188 107.833 227.958 108.5 227.875 109.125C227.708 110.125 227.562 111.5 227.438 113.25C227.354 114.958 227.271 116.833 227.188 118.875C227.104 120.917 227.062 123.021 227.062 125.188C227.062 127.354 227.083 129.417 227.125 131.375C227.208 133.292 227.333 135 227.5 136.5C227.708 138 227.958 139.083 228.25 139.75C228.667 140.5 229.104 141.25 229.562 142C229.979 142.625 230.479 143.271 231.062 143.938C231.646 144.604 232.312 145.146 233.062 145.562C230.604 145.438 228.646 145.375 227.188 145.375H224.938C224.271 145.375 223.417 145.417 222.375 145.5C221.5 145.583 220.396 145.667 219.062 145.75C217.729 145.833 216.125 145.958 214.25 146.125C215.208 145.083 215.958 144.083 216.5 143.125C217.042 142.167 217.479 141.333 217.812 140.625C218.188 139.792 218.438 139 218.562 138.25C218.729 137.167 218.854 135.833 218.938 134.25C219.062 132.625 219.146 130.896 219.188 129.062C219.229 127.188 219.229 125.292 219.188 123.375C219.188 121.417 219.146 119.542 219.062 117.75C218.979 115.958 218.854 114.333 218.688 112.875C218.562 111.417 218.396 110.25 218.188 109.375C218.062 108.833 217.812 108.229 217.438 107.562C217.104 106.979 216.646 106.312 216.062 105.562C215.521 104.771 214.792 103.896 213.875 102.938ZM233.562 106.625C234.812 106.75 235.854 106.854 236.688 106.938C237.562 107.021 238.271 107.083 238.812 107.125C239.438 107.167 239.938 107.188 240.312 107.188C240.688 107.229 241.188 107.229 241.812 107.188C242.354 107.146 243.062 107.104 243.938 107.062C244.812 106.979 245.917 106.854 247.25 106.688C246.958 107.104 246.729 107.479 246.562 107.812C246.396 108.104 246.25 108.375 246.125 108.625L245.75 109.375C245.667 109.625 245.583 109.875 245.5 110.125C245.417 110.333 245.333 110.583 245.25 110.875C245.208 111.167 245.167 111.479 245.125 111.812H254.75L253.875 116.875L245.062 116.375C244.854 118.5 244.708 120.146 244.625 121.312C244.542 122.479 244.458 123.333 244.375 123.875L244.25 125C244.125 126.583 244 128.312 243.875 130.188C243.75 132.021 243.708 133.729 243.75 135.312C243.792 136.896 243.938 138.229 244.188 139.312C244.438 140.354 244.875 140.875 245.5 140.875C246.125 140.875 246.708 140.708 247.25 140.375C247.792 140.042 248.25 139.646 248.625 139.188C249.042 138.729 249.354 138.271 249.562 137.812C249.771 137.312 249.875 136.938 249.875 136.688C249.875 136.438 249.812 136.146 249.688 135.812C249.479 135.188 249.104 134.396 248.562 133.438C249.771 133.729 250.833 134.021 251.75 134.312C252.208 134.479 252.625 134.646 253 134.812C253.417 134.979 253.896 135.167 254.438 135.375C254.896 135.583 255.479 135.833 256.188 136.125C256.896 136.417 257.729 136.771 258.688 137.188C257.771 137.354 257.104 137.625 256.688 138C256.438 138.167 256.25 138.354 256.125 138.562C255.833 139.021 255.5 139.646 255.125 140.438C254.75 141.188 254.188 141.938 253.438 142.688C252.688 143.438 251.667 144.104 250.375 144.688C249.125 145.271 247.438 145.604 245.312 145.688C243.104 145.771 241.417 145.396 240.25 144.562C239.125 143.729 238.292 142.771 237.75 141.688C237.25 140.562 236.958 139.458 236.875 138.375C236.792 137.292 236.729 136.562 236.688 136.188C236.646 135.812 236.646 134.875 236.688 133.375C236.729 131.875 236.792 130.229 236.875 128.438C236.958 126.604 237.042 124.854 237.125 123.188C237.208 121.479 237.25 120.229 237.25 119.438C237.25 119.021 237.271 118.583 237.312 118.125C237.312 117.75 237.312 117.354 237.312 116.938C237.354 116.479 237.375 116.042 237.375 115.625L228.312 115.562L227.938 112L237.062 112.25C236.979 111.792 236.875 111.375 236.75 111C236.667 110.583 236.583 110.25 236.5 110C236.375 109.708 236.25 109.458 236.125 109.25C235.958 109.042 235.771 108.812 235.562 108.562C235.354 108.354 235.083 108.083 234.75 107.75C234.417 107.417 234.021 107.042 233.562 106.625ZM266.75 101.625C268.542 101.792 270.125 101.917 271.5 102C272.875 102.083 274.021 102.167 274.938 102.25C276.021 102.333 276.938 102.396 277.688 102.438C278.438 102.479 279.354 102.5 280.438 102.5C281.354 102.542 282.5 102.562 283.875 102.562C285.25 102.562 286.875 102.562 288.75 102.562C287.542 103.146 286.604 103.688 285.938 104.188C285.312 104.688 284.833 105.125 284.5 105.5C284.083 105.958 283.833 106.375 283.75 106.75C283.708 107.083 283.792 107.646 284 108.438C284.208 109.229 284.5 110.125 284.875 111.125C285.25 112.083 285.708 113.104 286.25 114.188C286.792 115.271 287.354 116.25 287.938 117.125C288.562 117.958 289.188 118.646 289.812 119.188C290.438 119.729 291.042 119.979 291.625 119.938C292.208 119.896 292.917 119.625 293.75 119.125C294.583 118.583 295.438 117.917 296.312 117.125C297.229 116.333 298.125 115.479 299 114.562C299.875 113.646 300.646 112.75 301.312 111.875C302.021 111 302.583 110.208 303 109.5C303.458 108.75 303.688 108.208 303.688 107.875C303.646 107.458 303.479 106.979 303.188 106.438C302.938 105.979 302.521 105.438 301.938 104.812C301.354 104.146 300.542 103.396 299.5 102.562C302.917 102.688 305.417 102.75 307 102.75H309.312H311.938C312.896 102.75 314.167 102.75 315.75 102.75C317.333 102.708 319.312 102.646 321.688 102.562C320.062 103.646 318.646 104.625 317.438 105.5C316.271 106.333 315.271 107.042 314.438 107.625C313.479 108.333 312.688 108.958 312.062 109.5C311.354 110.083 310.375 111 309.125 112.25C308.042 113.333 306.604 114.792 304.812 116.625C303.021 118.417 300.771 120.75 298.062 123.625C297.688 126.667 297.438 129.125 297.312 131C297.229 132.875 297.188 134.354 297.188 135.438C297.188 136.688 297.271 137.625 297.438 138.25C297.646 138.75 298 139.333 298.5 140C298.917 140.583 299.5 141.271 300.25 142.062C301.042 142.854 302.083 143.729 303.375 144.688C302 144.354 300.708 144.104 299.5 143.938C298.333 143.771 297.292 143.646 296.375 143.562C295.292 143.438 294.312 143.375 293.438 143.375C292.521 143.375 291.438 143.417 290.188 143.5C289.104 143.583 287.812 143.688 286.312 143.812C284.812 143.938 283.062 144.125 281.062 144.375C282.104 143.667 282.958 142.958 283.625 142.25C284.292 141.542 284.812 140.896 285.188 140.312C285.646 139.646 285.979 139.021 286.188 138.438C286.354 137.771 286.479 136.812 286.562 135.562C286.646 134.479 286.646 133.042 286.562 131.25C286.521 129.458 286.396 127.188 286.188 124.438C283.688 120.438 281.646 117.292 280.062 115C278.479 112.667 277.25 110.896 276.375 109.688C275.333 108.312 274.583 107.396 274.125 106.938C273.708 106.604 273.146 106.188 272.438 105.688C271.854 105.229 271.104 104.688 270.188 104.062C269.229 103.396 268.083 102.583 266.75 101.625ZM324.375 118C325.458 118 326.583 118.208 327.75 118.625C328.917 119 330.042 119.5 331.125 120.125C332.208 120.708 333.188 121.354 334.062 122.062C334.979 122.729 335.729 123.375 336.312 124C337.354 125.125 338.062 126.646 338.438 128.562C338.854 130.438 338.938 132.375 338.688 134.375C338.438 136.333 337.854 138.188 336.938 139.938C336.021 141.688 334.75 142.979 333.125 143.812C331.958 144.396 330.812 144.854 329.688 145.188C328.562 145.521 327.479 145.771 326.438 145.938C325.396 146.104 324.417 146.188 323.5 146.188C322.583 146.188 321.792 146.167 321.125 146.125C319.875 146.042 318.562 145.604 317.188 144.812C315.854 144.021 314.583 143.042 313.375 141.875C312.208 140.708 311.208 139.438 310.375 138.062C309.542 136.646 309.042 135.312 308.875 134.062C308.625 132.354 308.583 130.562 308.75 128.688C308.917 126.812 309.521 125.083 310.562 123.5C311.646 121.917 313.271 120.604 315.438 119.562C317.646 118.521 320.625 118 324.375 118ZM322.312 142.25C322.771 142.333 323.396 142.229 324.188 141.938C324.979 141.604 325.75 141.083 326.5 140.375C327.292 139.667 327.979 138.771 328.562 137.688C329.188 136.562 329.562 135.208 329.688 133.625C329.812 132.083 329.812 130.667 329.688 129.375C329.604 128.083 329.417 126.958 329.125 126C328.833 125 328.5 124.188 328.125 123.562C327.75 122.938 327.354 122.5 326.938 122.25C326.229 121.875 325.375 121.583 324.375 121.375C323.375 121.125 322.521 121.167 321.812 121.5C321.479 121.667 321.062 122.021 320.562 122.562C320.062 123.104 319.562 123.792 319.062 124.625C318.562 125.417 318.104 126.333 317.688 127.375C317.312 128.417 317.042 129.5 316.875 130.625C316.708 131.75 316.667 132.958 316.75 134.25C316.875 135.542 317.146 136.771 317.562 137.938C317.979 139.062 318.562 140.042 319.312 140.875C320.104 141.667 321.104 142.125 322.312 142.25ZM342 117.25C343.083 117.458 344.021 117.625 344.812 117.75C345.646 117.833 346.354 117.917 346.938 118C347.604 118.083 348.188 118.146 348.688 118.188C349.188 118.229 349.771 118.271 350.438 118.312C351.562 118.354 353.146 118.354 355.188 118.312C353.979 118.229 353.021 118.542 352.312 119.25C351.646 119.917 351.146 120.688 350.812 121.562C350.396 122.604 350.167 123.812 350.125 125.188C350.042 127.021 350.083 128.688 350.25 130.188C350.458 131.646 350.812 132.896 351.312 133.938C351.854 134.938 352.562 135.688 353.438 136.188C354.312 136.646 355.438 136.771 356.812 136.562C358.188 136.354 359.229 135.875 359.938 135.125C360.688 134.333 361.229 133.375 361.562 132.25C361.896 131.083 362.083 129.771 362.125 128.312C362.208 126.854 362.271 125.333 362.312 123.75C362.312 122.167 362.292 121.042 362.25 120.375C362.25 119.667 362.229 119.208 362.188 119C362.146 118.792 362.083 118.708 362 118.75C361.917 118.75 361.812 118.646 361.688 118.438C361.604 118.271 361.479 118.104 361.312 117.938C361.188 117.771 361.021 117.583 360.812 117.375C360.604 117.125 360.375 116.875 360.125 116.625C361.208 116.667 362.167 116.708 363 116.75C363.875 116.75 364.604 116.771 365.188 116.812C365.854 116.854 366.438 116.896 366.938 116.938C367.396 116.979 368 117.042 368.75 117.125C369.375 117.208 370.188 117.292 371.188 117.375C372.188 117.458 373.375 117.583 374.75 117.75C373.792 117.958 373.021 118.271 372.438 118.688C371.854 119.104 371.396 119.521 371.062 119.938C370.688 120.396 370.417 120.896 370.25 121.438C370.125 122.146 370.125 123.229 370.25 124.688C370.333 125.979 370.542 127.75 370.875 130C371.208 132.25 371.729 135.208 372.438 138.875L367.5 141.812L366.5 133.5C365.292 135.542 364 137.125 362.625 138.25C361.292 139.333 360.042 140.125 358.875 140.625C357.5 141.208 356.167 141.542 354.875 141.625C353.167 141.625 351.688 141.521 350.438 141.312C349.229 141.062 348.188 140.75 347.312 140.375C346.438 140 345.729 139.583 345.188 139.125C344.688 138.625 344.312 138.125 344.062 137.625C343.479 136.583 343.167 135.25 343.125 133.625C343.083 131.958 343.146 130.312 343.312 128.688C343.479 127.021 343.667 125.5 343.875 124.125C344.083 122.75 344.146 121.812 344.062 121.312C343.979 120.938 343.854 120.521 343.688 120.062C343.521 119.688 343.312 119.271 343.062 118.812C342.812 118.312 342.458 117.792 342 117.25ZM375.062 116.062C375.854 116.104 376.562 116.125 377.188 116.125C377.854 116.083 378.417 116.042 378.875 116C379.417 115.958 379.896 115.917 380.312 115.875C380.938 115.792 381.583 115.688 382.25 115.562C382.833 115.479 383.438 115.375 384.062 115.25C384.729 115.083 385.375 114.896 386 114.688C385.75 115.312 385.542 115.854 385.375 116.312C385.208 116.771 385.083 117.167 385 117.5C384.875 117.875 384.812 118.188 384.812 118.438C384.771 118.729 384.75 119.083 384.75 119.5C384.708 120.208 384.708 121.354 384.75 122.938C386.917 121.062 388.729 119.604 390.188 118.562C391.688 117.521 392.875 116.708 393.75 116.125C394.792 115.458 395.604 115.021 396.188 114.812C397.729 114.562 399.083 114.917 400.25 115.875C400.75 116.292 401.229 116.854 401.688 117.562C402.146 118.229 402.542 119.125 402.875 120.25C403.208 121.375 403.458 122.729 403.625 124.312C403.792 125.854 403.812 127.708 403.688 129.875C402.812 129.958 402.021 130.042 401.312 130.125C400.646 130.208 400.083 130.271 399.625 130.312C399.083 130.396 398.583 130.438 398.125 130.438L396.438 130.625C395.854 130.708 395.125 130.792 394.25 130.875C393.417 130.917 392.396 131 391.188 131.125C392.938 129.708 394.062 128.479 394.562 127.438C395.104 126.354 395.333 125.458 395.25 124.75C395.167 123.958 394.792 123.271 394.125 122.688C393.333 122.229 392.479 122.062 391.562 122.188C390.771 122.271 389.854 122.625 388.812 123.25C387.771 123.875 386.667 125.042 385.5 126.75C385.583 129.417 385.667 131.625 385.75 133.375C385.875 135.125 385.979 136.542 386.062 137.625C386.188 138.875 386.292 139.854 386.375 140.562C386.5 141.188 386.75 141.854 387.125 142.562C387.417 143.146 387.833 143.792 388.375 144.5C388.917 145.208 389.625 145.917 390.5 146.625C388.667 146.542 387.167 146.542 386 146.625C385.292 146.667 384.667 146.708 384.125 146.75C383.542 146.833 382.917 146.917 382.25 147C381.667 147.083 380.979 147.167 380.188 147.25C379.438 147.375 378.604 147.5 377.688 147.625C378.021 147.167 378.292 146.625 378.5 146C378.708 145.417 378.875 144.854 379 144.312C379.167 143.688 379.292 143.042 379.375 142.375C379.417 141.792 379.438 140.917 379.438 139.75C379.479 138.583 379.458 137.271 379.375 135.812C379.333 134.312 379.271 132.771 379.188 131.188C379.104 129.562 379 128.042 378.875 126.625C378.75 125.208 378.604 123.979 378.438 122.938C378.312 121.854 378.167 121.104 378 120.688C377.792 120.188 377.542 119.688 377.25 119.188C377 118.729 376.688 118.25 376.312 117.75C375.938 117.208 375.521 116.646 375.062 116.062ZM423.938 101.625C425.396 101.792 426.625 101.917 427.625 102C428.625 102.042 429.417 102.083 430 102.125C430.708 102.167 431.271 102.188 431.688 102.188C432.396 102.188 433.208 102.167 434.125 102.125C434.917 102.083 435.833 102.021 436.875 101.938C437.958 101.812 439.125 101.625 440.375 101.375C439.792 102 439.312 102.604 438.938 103.188C438.562 103.729 438.271 104.229 438.062 104.688C437.812 105.188 437.604 105.646 437.438 106.062C437.271 106.604 437.083 107.438 436.875 108.562C436.667 109.521 436.438 110.875 436.188 112.625C435.979 114.375 435.708 116.667 435.375 119.5C436.792 119.542 438.021 119.562 439.062 119.562C440.104 119.521 440.979 119.5 441.688 119.5H443.75C444.333 119.458 445 119.417 445.75 119.375C447 119.333 448.896 119.208 451.438 119C451.646 117.083 451.75 115.438 451.75 114.062C451.792 112.646 451.771 111.458 451.688 110.5C451.604 109.417 451.479 108.5 451.312 107.75C451.188 107.333 451 106.833 450.75 106.25C450.542 105.75 450.25 105.146 449.875 104.438C449.542 103.688 449.083 102.792 448.5 101.75C449.583 101.917 450.542 102.042 451.375 102.125C452.25 102.167 452.979 102.208 453.562 102.25C454.229 102.292 454.792 102.312 455.25 102.312C455.708 102.312 456.312 102.292 457.062 102.25C457.688 102.208 458.458 102.188 459.375 102.188C460.292 102.146 461.417 102.083 462.75 102C462.417 102.583 462.125 103.188 461.875 103.812C461.625 104.438 461.417 105 461.25 105.5C461.083 106.083 460.917 106.667 460.75 107.25C460.542 108.125 460.354 109.396 460.188 111.062C460.062 112.729 459.938 114.583 459.812 116.625C459.729 118.667 459.646 120.792 459.562 123C459.521 125.208 459.479 127.292 459.438 129.25C459.438 131.208 459.458 132.958 459.5 134.5C459.542 136 459.625 137.062 459.75 137.688C459.875 138.438 460.083 139.208 460.375 140C460.625 140.708 460.958 141.479 461.375 142.312C461.792 143.104 462.333 143.854 463 144.562L447.938 145.688C448.562 145.104 449.062 144.542 449.438 144C449.812 143.417 450.104 142.917 450.312 142.5C450.521 142.042 450.667 141.604 450.75 141.188C450.792 140.688 450.854 139.812 450.938 138.562C451.021 137.521 451.104 136.042 451.188 134.125C451.271 132.208 451.354 129.667 451.438 126.5C450.854 126.5 450.146 126.521 449.312 126.562C448.521 126.562 447.771 126.583 447.062 126.625C446.229 126.667 445.354 126.688 444.438 126.688C443.521 126.729 442.562 126.771 441.562 126.812C440.729 126.896 439.792 126.979 438.75 127.062C437.75 127.104 436.75 127.167 435.75 127.25C435.667 129 435.667 130.542 435.75 131.875C435.833 133.167 435.958 134.271 436.125 135.188C436.292 136.271 436.5 137.208 436.75 138C437 138.75 437.271 139.5 437.562 140.25C437.812 140.917 438.104 141.625 438.438 142.375C438.812 143.125 439.188 143.792 439.562 144.375C438.771 144.292 438.042 144.229 437.375 144.188C436.708 144.104 436.125 144.021 435.625 143.938C435.042 143.896 434.479 143.854 433.938 143.812C433.396 143.812 432.75 143.792 432 143.75C431.333 143.708 430.5 143.688 429.5 143.688C428.5 143.646 427.333 143.625 426 143.625C426.792 142.833 427.417 142.062 427.875 141.312C428.375 140.521 428.729 139.812 428.938 139.188C429.188 138.438 429.354 137.75 429.438 137.125C429.479 136.583 429.5 135.562 429.5 134.062C429.542 132.562 429.542 130.854 429.5 128.938C429.5 126.979 429.479 124.938 429.438 122.812C429.396 120.646 429.333 118.625 429.25 116.75C429.208 114.875 429.146 113.271 429.062 111.938C429.021 110.562 428.979 109.708 428.938 109.375C428.729 108.625 428.417 107.812 428 106.938C427.625 106.229 427.125 105.417 426.5 104.5C425.875 103.542 425.021 102.583 423.938 101.625ZM469.25 120.688C469.458 120.438 469.583 119.979 469.625 119.312C469.708 118.604 469.875 117.812 470.125 116.938C470.417 116.062 470.896 115.146 471.562 114.188C472.229 113.229 473.312 112.333 474.812 111.5C476.271 110.667 477.688 110.167 479.062 110C480.438 109.833 481.75 109.896 483 110.188C484.25 110.479 485.417 110.938 486.5 111.562C487.625 112.188 488.646 112.875 489.562 113.625C490.188 114.125 490.688 114.854 491.062 115.812C491.438 116.729 491.729 117.771 491.938 118.938C492.146 120.104 492.292 121.333 492.375 122.625C492.5 123.875 492.583 125.104 492.625 126.312C492.667 127.479 492.688 128.562 492.688 129.562C492.729 130.521 492.812 131.312 492.938 131.938C493.104 132.854 493.396 133.646 493.812 134.312C494.229 134.938 494.688 135.479 495.188 135.938C495.688 136.354 496.188 136.688 496.688 136.938C497.188 137.188 497.625 137.375 498 137.5C498.25 137.625 498.479 137.708 498.688 137.75C499.104 137.917 499.396 137.917 499.562 137.75C499.312 138.333 499.083 138.833 498.875 139.25C498.667 139.667 498.5 140.021 498.375 140.312C498.208 140.646 498.062 140.917 497.938 141.125C497.812 141.375 497.667 141.604 497.5 141.812C497.375 142.021 497.208 142.25 497 142.5C496.792 142.75 496.583 143.021 496.375 143.312C495.833 143.104 495.312 142.854 494.812 142.562C494.354 142.271 493.938 142 493.562 141.75C493.104 141.458 492.688 141.167 492.312 140.875C491.938 140.583 491.583 140.25 491.25 139.875C490.958 139.542 490.646 139.188 490.312 138.812C490.021 138.438 489.771 138.021 489.562 137.562C489.312 138.104 488.708 138.875 487.75 139.875C486.833 140.875 485.625 141.792 484.125 142.625C482.625 143.417 480.875 143.979 478.875 144.312C476.917 144.646 474.75 144.417 472.375 143.625C471.333 143.292 470.354 142.812 469.438 142.188C468.521 141.521 467.729 140.729 467.062 139.812C466.438 138.896 465.979 137.854 465.688 136.688C465.438 135.479 465.458 134.146 465.75 132.688C466.042 131.229 466.562 130 467.312 129C468.062 128 468.958 127.188 470 126.562C471.042 125.938 472.208 125.458 473.5 125.125C474.792 124.792 476.125 124.562 477.5 124.438C478.583 124.396 479.667 124.458 480.75 124.625C481.667 124.792 482.625 125.104 483.625 125.562C484.625 125.979 485.479 126.625 486.188 127.5C486.146 125.292 486.062 123.542 485.938 122.25C485.854 120.917 485.771 119.896 485.688 119.188C485.521 118.354 485.375 117.771 485.25 117.438C485.042 117.146 484.812 116.812 484.562 116.438C484.354 116.062 484.083 115.729 483.75 115.438C483.417 115.104 483 114.833 482.5 114.625C482 114.417 481.417 114.333 480.75 114.375C480.042 114.417 479.479 114.604 479.062 114.938C478.646 115.271 478.312 115.667 478.062 116.125C477.854 116.542 477.729 117 477.688 117.5C477.646 118 477.667 118.438 477.75 118.812C477.833 119.062 477.958 119.333 478.125 119.625C478.292 119.875 478.521 120.146 478.812 120.438C479.104 120.729 479.5 120.979 480 121.188C479.042 121.312 478.188 121.417 477.438 121.5C476.688 121.542 476.042 121.604 475.5 121.688C474.875 121.771 474.333 121.833 473.875 121.875C473.417 121.917 472.875 122 472.25 122.125C471.708 122.208 471.042 122.312 470.25 122.438C469.458 122.562 468.542 122.729 467.5 122.938C467.75 122.646 467.979 122.375 468.188 122.125C468.396 121.833 468.583 121.583 468.75 121.375C468.917 121.125 469.083 120.896 469.25 120.688ZM478.625 128.125C477.875 128.167 477.125 128.354 476.375 128.688C475.625 128.979 474.958 129.417 474.375 130C473.792 130.542 473.292 131.188 472.875 131.938C472.5 132.646 472.312 133.438 472.312 134.312C472.312 135.188 472.521 135.958 472.938 136.625C473.396 137.25 473.979 137.771 474.688 138.188C475.438 138.604 476.229 138.854 477.062 138.938C477.938 139.021 478.792 138.938 479.625 138.688C480.417 138.396 481.167 137.938 481.875 137.312C482.583 136.646 483.188 135.938 483.688 135.188C484.188 134.396 484.542 133.625 484.75 132.875C484.958 132.083 484.979 131.438 484.812 130.938C484.479 129.854 483.729 129.104 482.562 128.688C481.396 128.229 480.083 128.042 478.625 128.125ZM498.938 102.125C499.896 102.375 500.771 102.562 501.562 102.688C502.396 102.771 503.104 102.833 503.688 102.875C504.396 102.917 505.042 102.938 505.625 102.938C506.208 102.938 506.938 102.896 507.812 102.812C509.354 102.688 511.542 102.375 514.375 101.875C513.917 102.208 513.479 102.542 513.062 102.875C512.688 103.167 512.354 103.458 512.062 103.75L511.125 104.688C510.583 105.438 510.042 106.708 509.5 108.5C509.042 110.042 508.542 112.208 508 115C507.5 117.792 507.042 121.5 506.625 126.125C508.667 124.125 510.583 122.625 512.375 121.625C514.208 120.583 515.812 119.833 517.188 119.375C518.812 118.875 520.292 118.604 521.625 118.562C523.333 118.688 524.812 119.042 526.062 119.625C527.354 120.167 528.438 120.833 529.312 121.625C530.229 122.375 530.958 123.167 531.5 124C532.083 124.792 532.521 125.5 532.812 126.125C532.979 126.542 533.104 127.312 533.188 128.438C533.312 129.521 533.333 130.771 533.25 132.188C533.167 133.604 532.938 135.104 532.562 136.688C532.229 138.229 531.667 139.667 530.875 141C530.125 142.292 529.125 143.375 527.875 144.25C526.667 145.125 525.146 145.604 523.312 145.688C521.188 145.688 519.125 145.438 517.125 144.938C515.417 144.521 513.604 143.792 511.688 142.75C509.812 141.667 508.208 140.125 506.875 138.125C506.875 138.625 506.875 139.125 506.875 139.625C506.875 140.083 506.896 140.479 506.938 140.812C506.979 141.271 507.021 141.667 507.062 142C507.104 142.375 507.208 142.771 507.375 143.188C507.5 143.521 507.688 143.938 507.938 144.438C508.229 144.896 508.604 145.354 509.062 145.812C508.604 145.771 508.146 145.75 507.688 145.75C507.229 145.708 506.771 145.708 506.312 145.75C505.812 145.792 505.312 145.833 504.812 145.875C504.312 145.917 503.792 145.979 503.25 146.062C502.792 146.146 502.25 146.25 501.625 146.375C501 146.5 500.354 146.646 499.688 146.812C499.812 146.438 499.917 145.896 500 145.188C500.083 144.438 500.167 143.625 500.25 142.75C500.375 141.833 500.458 140.875 500.5 139.875C500.583 138.875 500.667 137.875 500.75 136.875C500.917 134.583 501.062 132.083 501.188 129.375C501.312 125.167 501.333 121.25 501.25 117.625C501.208 116.083 501.125 114.521 501 112.938C500.917 111.354 500.792 109.875 500.625 108.5C500.458 107.083 500.229 105.833 499.938 104.75C499.688 103.625 499.354 102.75 498.938 102.125ZM507.062 132.562C507.729 133.771 508.438 134.812 509.188 135.688C509.938 136.521 510.688 137.229 511.438 137.812C512.188 138.396 512.917 138.854 513.625 139.188C514.375 139.521 515.083 139.771 515.75 139.938C517.292 140.354 518.812 140.396 520.312 140.062C521.812 139.646 522.979 138.812 523.812 137.562C524.646 136.312 525.292 134.896 525.75 133.312C525.958 132.562 526.083 131.604 526.125 130.438C526.208 129.271 526.083 128.146 525.75 127.062C525.458 125.938 524.917 124.958 524.125 124.125C523.333 123.25 522.188 122.729 520.688 122.562C519.646 122.562 518.438 122.854 517.062 123.438C515.854 123.938 514.417 124.771 512.75 125.938C511.083 127.062 509.188 128.75 507.062 131V132.562ZM536.188 118.062L547.688 118.188C547.021 120.729 546.521 122.896 546.188 124.688C545.896 126.479 545.708 127.979 545.625 129.188C545.458 130.562 545.417 131.729 545.5 132.688C545.625 133.562 545.833 134.5 546.125 135.5C546.375 136.333 546.75 137.292 547.25 138.375C547.75 139.458 548.417 140.542 549.25 141.625C548.75 141.458 548.208 141.333 547.625 141.25C547.042 141.167 546.5 141.104 546 141.062C545.417 141.021 544.833 141.021 544.25 141.062C543.667 141.104 543.021 141.167 542.312 141.25C541.729 141.333 541.021 141.438 540.188 141.562C539.354 141.688 538.479 141.854 537.562 142.062C538.188 140.188 538.667 138.562 539 137.188C539.375 135.812 539.646 134.667 539.812 133.75C539.979 132.667 540.083 131.792 540.125 131.125C540.125 130.292 540.125 129.354 540.125 128.312C540.125 127.229 540.125 126.188 540.125 125.188C540.125 124.188 540.104 123.312 540.062 122.562C540.021 121.771 539.938 121.271 539.812 121.062L539.188 120.438C538.938 120.229 538.562 119.938 538.062 119.562C537.604 119.146 536.979 118.646 536.188 118.062ZM540.625 108.438C541.5 107.979 542.375 107.854 543.25 108.062C544.167 108.271 544.875 108.667 545.375 109.25C545.875 109.833 546.042 110.521 545.875 111.312C545.75 112.104 545.083 112.875 543.875 113.625C542.667 114.333 541.604 114.583 540.688 114.375C539.771 114.167 539.125 113.729 538.75 113.062C538.375 112.396 538.312 111.625 538.562 110.75C538.812 109.833 539.5 109.062 540.625 108.438ZM550.75 106.625C552 106.75 553.042 106.854 553.875 106.938C554.75 107.021 555.458 107.083 556 107.125C556.625 107.167 557.125 107.188 557.5 107.188C557.875 107.229 558.375 107.229 559 107.188C559.542 107.146 560.25 107.104 561.125 107.062C562 106.979 563.104 106.854 564.438 106.688C564.146 107.104 563.917 107.479 563.75 107.812C563.583 108.104 563.438 108.375 563.312 108.625L562.938 109.375C562.854 109.625 562.771 109.875 562.688 110.125C562.604 110.333 562.521 110.583 562.438 110.875C562.396 111.167 562.354 111.479 562.312 111.812H571.938L571.062 116.875L562.25 116.375C562.042 118.5 561.896 120.146 561.812 121.312C561.729 122.479 561.646 123.333 561.562 123.875L561.438 125C561.312 126.583 561.188 128.312 561.062 130.188C560.938 132.021 560.896 133.729 560.938 135.312C560.979 136.896 561.125 138.229 561.375 139.312C561.625 140.354 562.062 140.875 562.688 140.875C563.312 140.875 563.896 140.708 564.438 140.375C564.979 140.042 565.438 139.646 565.812 139.188C566.229 138.729 566.542 138.271 566.75 137.812C566.958 137.312 567.062 136.938 567.062 136.688C567.062 136.438 567 136.146 566.875 135.812C566.667 135.188 566.292 134.396 565.75 133.438C566.958 133.729 568.021 134.021 568.938 134.312C569.396 134.479 569.812 134.646 570.188 134.812C570.604 134.979 571.083 135.167 571.625 135.375C572.083 135.583 572.667 135.833 573.375 136.125C574.083 136.417 574.917 136.771 575.875 137.188C574.958 137.354 574.292 137.625 573.875 138C573.625 138.167 573.438 138.354 573.312 138.562C573.021 139.021 572.688 139.646 572.312 140.438C571.938 141.188 571.375 141.938 570.625 142.688C569.875 143.438 568.854 144.104 567.562 144.688C566.312 145.271 564.625 145.604 562.5 145.688C560.292 145.771 558.604 145.396 557.438 144.562C556.312 143.729 555.479 142.771 554.938 141.688C554.438 140.562 554.146 139.458 554.062 138.375C553.979 137.292 553.917 136.562 553.875 136.188C553.833 135.812 553.833 134.875 553.875 133.375C553.917 131.875 553.979 130.229 554.062 128.438C554.146 126.604 554.229 124.854 554.312 123.188C554.396 121.479 554.438 120.229 554.438 119.438C554.438 119.021 554.458 118.583 554.5 118.125C554.5 117.75 554.5 117.354 554.5 116.938C554.542 116.479 554.562 116.042 554.562 115.625L545.5 115.562L545.125 112L554.25 112.25C554.167 111.792 554.062 111.375 553.938 111C553.854 110.583 553.771 110.25 553.688 110C553.562 109.708 553.438 109.458 553.312 109.25C553.146 109.042 552.958 108.812 552.75 108.562C552.542 108.354 552.271 108.083 551.938 107.75C551.604 107.417 551.208 107.042 550.75 106.625Z" fill="black"/>
<path class="lower" d="M52.1039 200L48.7039 194.06C48.4772 194.313 48.2439 194.567 48.0039 194.82C47.7772 195.073 47.5372 195.333 47.2839 195.6V200H44.8839V186.4H47.2839V192.86C48.2972 191.7 49.1639 190.6 49.8839 189.56C50.6039 188.507 51.2239 187.453 51.7439 186.4H54.3639C53.7906 187.547 53.1772 188.633 52.5239 189.66C51.8839 190.673 51.2039 191.613 50.4839 192.48L55.0039 200H52.1039ZM61.6728 191.8C61.3395 191.8 60.9595 191.88 60.5328 192.04C60.1061 192.2 59.5995 192.513 59.0128 192.98V200H56.7128V189.86H58.8928V191.22C59.5195 190.673 60.1128 190.28 60.6728 190.04C61.2328 189.787 61.7995 189.66 62.3728 189.66C63.3461 189.66 64.0861 189.973 64.5928 190.6C65.0995 191.213 65.3528 192.08 65.3528 193.2V200H63.0528V193.48C63.0528 192.36 62.5928 191.8 61.6728 191.8ZM76.6925 194.32V195.52C76.6925 196.933 76.3058 198.067 75.5325 198.92C74.7592 199.773 73.6658 200.2 72.2525 200.2C70.8392 200.2 69.7458 199.773 68.9725 198.92C68.1992 198.067 67.8125 196.933 67.8125 195.52V194.32C67.8125 192.907 68.1925 191.78 68.9525 190.94C69.7258 190.087 70.8258 189.66 72.2525 189.66C73.6792 189.66 74.7725 190.087 75.5325 190.94C76.3058 191.78 76.6925 192.907 76.6925 194.32ZM74.3325 194.32C74.3325 193.507 74.1525 192.873 73.7925 192.42C73.4325 191.953 72.9192 191.72 72.2525 191.72C71.5858 191.72 71.0725 191.953 70.7125 192.42C70.3525 192.873 70.1725 193.507 70.1725 194.32V195.52C70.1725 196.333 70.3525 196.973 70.7125 197.44C71.0725 197.907 71.5858 198.14 72.2525 198.14C72.9192 198.14 73.4325 197.907 73.7925 197.44C74.1525 196.973 74.3325 196.333 74.3325 195.52V194.32ZM91.6961 189.86L89.0961 200H86.5961L84.9161 192.38L83.1361 200H80.6361L78.0361 189.86H80.3961L81.3761 193.88L82.0561 197.54L83.7761 189.86H86.0961L87.8761 197.62L88.5161 193.9L89.4761 189.86H91.6961ZM93.7622 197.14V185.2H96.0622V197.14C96.0622 197.34 96.1089 197.533 96.2022 197.72C96.3089 197.893 96.5089 197.98 96.8022 197.98H97.1222V200.1H96.5622C95.8022 200.1 95.2222 199.953 94.8222 199.66C94.4222 199.367 94.1422 198.993 93.9822 198.54C93.8355 198.087 93.7622 197.62 93.7622 197.14ZM107.05 199.42C106.356 199.7 105.703 199.9 105.09 200.02C104.476 200.14 103.896 200.2 103.35 200.2C101.843 200.2 100.703 199.773 99.9295 198.92C99.1562 198.067 98.7695 196.933 98.7695 195.52V194.32C98.7695 193.373 98.9429 192.553 99.2895 191.86C99.6362 191.167 100.13 190.627 100.77 190.24C101.41 189.853 102.163 189.66 103.03 189.66C103.736 189.66 104.396 189.807 105.01 190.1C105.636 190.38 106.143 190.827 106.53 191.44C106.93 192.04 107.13 192.813 107.13 193.76C107.13 194.04 107.11 194.34 107.07 194.66C107.03 194.967 106.963 195.293 106.87 195.64H100.99C101.016 196.467 101.223 197.087 101.61 197.5C101.996 197.913 102.616 198.12 103.47 198.12C103.923 198.12 104.39 198.067 104.87 197.96C105.363 197.853 105.87 197.693 106.39 197.48L107.05 199.42ZM103.03 191.6C102.416 191.6 101.936 191.8 101.59 192.2C101.256 192.587 101.063 193.147 101.01 193.88H104.85C104.863 193.813 104.87 193.753 104.87 193.7C104.87 193.633 104.87 193.573 104.87 193.52C104.87 192.88 104.69 192.4 104.33 192.08C103.97 191.76 103.536 191.6 103.03 191.6ZM115.719 200V198.62C115.106 199.233 114.573 199.653 114.119 199.88C113.679 200.093 113.219 200.2 112.739 200.2C111.646 200.2 110.793 199.787 110.179 198.96C109.579 198.133 109.279 196.973 109.279 195.48V194.4C109.279 192.947 109.646 191.793 110.379 190.94C111.113 190.087 112.173 189.66 113.559 189.66C113.906 189.66 114.246 189.693 114.579 189.76C114.926 189.827 115.266 189.92 115.599 190.04V185.2H117.899V200H115.719ZM111.639 195.48C111.639 196.373 111.786 197.027 112.079 197.44C112.386 197.853 112.813 198.06 113.359 198.06C113.666 198.06 113.993 197.973 114.339 197.8C114.686 197.613 115.106 197.267 115.599 196.76V192.12C114.946 191.853 114.346 191.72 113.799 191.72C113.026 191.72 112.473 191.96 112.139 192.44C111.806 192.92 111.639 193.573 111.639 194.4V195.48ZM129.488 201.02C129.488 202.1 129.062 202.94 128.208 203.54C127.368 204.153 126.195 204.46 124.688 204.46C123.982 204.46 123.235 204.38 122.448 204.22C121.662 204.06 120.935 203.793 120.268 203.42L120.928 201.6C121.568 201.92 122.202 202.147 122.828 202.28C123.455 202.427 124.068 202.5 124.668 202.5C125.508 202.5 126.148 202.387 126.588 202.16C127.028 201.933 127.248 201.633 127.248 201.26C127.248 200.687 126.908 200.4 126.228 200.4H123.828C123.175 200.4 122.648 200.293 122.248 200.08C121.848 199.867 121.555 199.593 121.368 199.26C121.182 198.913 121.088 198.553 121.088 198.18C121.088 197.793 121.168 197.433 121.328 197.1C121.502 196.753 121.735 196.433 122.028 196.14C121.548 195.847 121.162 195.453 120.868 194.96C120.588 194.467 120.448 193.873 120.448 193.18C120.448 192.393 120.615 191.74 120.948 191.22C121.282 190.7 121.735 190.313 122.308 190.06C122.895 189.793 123.542 189.66 124.248 189.66H124.588C124.855 189.66 125.115 189.68 125.368 189.72C125.622 189.747 125.862 189.793 126.088 189.86H129.708V191.82L127.708 191.5C127.908 191.713 128.062 191.98 128.168 192.3C128.288 192.607 128.348 192.987 128.348 193.44C128.348 194.12 128.175 194.707 127.828 195.2C127.495 195.68 127.042 196.053 126.468 196.32C125.908 196.573 125.282 196.7 124.588 196.7H124.248C123.982 196.7 123.728 196.68 123.488 196.64C123.342 196.8 123.235 196.967 123.168 197.14C123.102 197.3 123.068 197.453 123.068 197.6C123.068 198.067 123.368 198.3 123.968 198.3H126.408C127.328 198.3 128.068 198.54 128.628 199.02C129.202 199.487 129.488 200.153 129.488 201.02ZM124.588 194.82C125.002 194.82 125.362 194.68 125.668 194.4C125.988 194.12 126.148 193.713 126.148 193.18C126.148 192.647 125.988 192.24 125.668 191.96C125.362 191.68 125.002 191.54 124.588 191.54H124.248C123.822 191.54 123.448 191.68 123.128 191.96C122.822 192.24 122.668 192.647 122.668 193.18C122.668 193.713 122.822 194.12 123.128 194.4C123.448 194.68 123.822 194.82 124.248 194.82H124.588ZM139.393 199.42C138.7 199.7 138.047 199.9 137.433 200.02C136.82 200.14 136.24 200.2 135.693 200.2C134.187 200.2 133.047 199.773 132.273 198.92C131.5 198.067 131.113 196.933 131.113 195.52V194.32C131.113 193.373 131.287 192.553 131.633 191.86C131.98 191.167 132.473 190.627 133.113 190.24C133.753 189.853 134.507 189.66 135.373 189.66C136.08 189.66 136.74 189.807 137.353 190.1C137.98 190.38 138.487 190.827 138.873 191.44C139.273 192.04 139.473 192.813 139.473 193.76C139.473 194.04 139.453 194.34 139.413 194.66C139.373 194.967 139.307 195.293 139.213 195.64H133.333C133.36 196.467 133.567 197.087 133.953 197.5C134.34 197.913 134.96 198.12 135.813 198.12C136.267 198.12 136.733 198.067 137.213 197.96C137.707 197.853 138.213 197.693 138.733 197.48L139.393 199.42ZM135.373 191.6C134.76 191.6 134.28 191.8 133.933 192.2C133.6 192.587 133.407 193.147 133.353 193.88H137.193C137.207 193.813 137.213 193.753 137.213 193.7C137.213 193.633 137.213 193.573 137.213 193.52C137.213 192.88 137.033 192.4 136.673 192.08C136.313 191.76 135.88 191.6 135.373 191.6ZM148.487 187.94H146.067V185.56H148.487V187.94ZM148.427 200H146.127V189.86H148.427V200ZM154.436 198.2C154.929 198.2 155.336 198.12 155.656 197.96C155.976 197.787 156.136 197.533 156.136 197.2C156.136 196.907 156.029 196.68 155.816 196.52C155.616 196.347 155.249 196.193 154.716 196.06L153.576 195.76C152.696 195.533 152.042 195.153 151.616 194.62C151.202 194.087 150.996 193.453 150.996 192.72C150.996 191.853 151.296 191.127 151.896 190.54C152.496 189.953 153.422 189.66 154.676 189.66C155.182 189.66 155.716 189.72 156.276 189.84C156.836 189.96 157.422 190.153 158.036 190.42L157.376 192.38C156.816 192.113 156.309 191.927 155.856 191.82C155.402 191.713 155.002 191.66 154.656 191.66C153.709 191.66 153.236 191.98 153.236 192.62C153.236 192.873 153.316 193.073 153.476 193.22C153.649 193.367 153.962 193.5 154.416 193.62L155.556 193.92C156.529 194.173 157.236 194.56 157.676 195.08C158.129 195.6 158.356 196.253 158.356 197.04C158.356 197.973 158.036 198.733 157.396 199.32C156.769 199.907 155.776 200.2 154.416 200.2C153.256 200.2 152.036 199.933 150.756 199.4L151.376 197.5C152.002 197.753 152.569 197.933 153.076 198.04C153.582 198.147 154.036 198.2 154.436 198.2ZM173.021 194.32V195.52C173.021 196.933 172.634 198.067 171.861 198.92C171.087 199.773 169.994 200.2 168.581 200.2C167.167 200.2 166.074 199.773 165.301 198.92C164.527 198.067 164.141 196.933 164.141 195.52V194.32C164.141 192.907 164.521 191.78 165.281 190.94C166.054 190.087 167.154 189.66 168.581 189.66C170.007 189.66 171.101 190.087 171.861 190.94C172.634 191.78 173.021 192.907 173.021 194.32ZM170.661 194.32C170.661 193.507 170.481 192.873 170.121 192.42C169.761 191.953 169.247 191.72 168.581 191.72C167.914 191.72 167.401 191.953 167.041 192.42C166.681 192.873 166.501 193.507 166.501 194.32V195.52C166.501 196.333 166.681 196.973 167.041 197.44C167.401 197.907 167.914 198.14 168.581 198.14C169.247 198.14 169.761 197.907 170.121 197.44C170.481 196.973 170.661 196.333 170.661 195.52V194.32ZM181.46 191.86H178.3V200H176V191.86H174.36V189.86H176V188.8C176 187.693 176.28 186.787 176.84 186.08C177.4 185.36 178.3 185 179.54 185C179.993 185 180.46 185.047 180.94 185.14C181.42 185.233 181.853 185.353 182.24 185.5L181.68 187.48C181.04 187.267 180.466 187.16 179.96 187.16C179.426 187.16 179.013 187.28 178.72 187.52C178.44 187.747 178.3 188.173 178.3 188.8V189.86H181.46V191.86ZM192.103 191.8C191.769 191.8 191.389 191.88 190.963 192.04C190.536 192.2 190.029 192.513 189.443 192.98V200H187.143V189.86H189.323V191.22C189.949 190.673 190.543 190.28 191.103 190.04C191.663 189.787 192.229 189.66 192.803 189.66C193.776 189.66 194.516 189.973 195.023 190.6C195.529 191.213 195.783 192.08 195.783 193.2V200H193.483V193.48C193.483 192.36 193.023 191.8 192.103 191.8ZM207.122 194.32V195.52C207.122 196.933 206.736 198.067 205.962 198.92C205.189 199.773 204.096 200.2 202.682 200.2C201.269 200.2 200.176 199.773 199.402 198.92C198.629 198.067 198.242 196.933 198.242 195.52V194.32C198.242 192.907 198.622 191.78 199.382 190.94C200.156 190.087 201.256 189.66 202.682 189.66C204.109 189.66 205.202 190.087 205.962 190.94C206.736 191.78 207.122 192.907 207.122 194.32ZM204.762 194.32C204.762 193.507 204.582 192.873 204.222 192.42C203.862 191.953 203.349 191.72 202.682 191.72C202.016 191.72 201.502 191.953 201.142 192.42C200.782 192.873 200.602 193.507 200.602 194.32V195.52C200.602 196.333 200.782 196.973 201.142 197.44C201.502 197.907 202.016 198.14 202.682 198.14C203.349 198.14 203.862 197.907 204.222 197.44C204.582 196.973 204.762 196.333 204.762 195.52V194.32ZM221.765 189.86L218.165 200H216.065L212.465 189.86H214.785L216.525 194.92L217.185 197.02L217.825 194.92L219.485 189.86H221.765ZM231.365 200.1C230.685 200.1 230.139 199.96 229.725 199.68C229.325 199.4 229.032 199.053 228.845 198.64C228.272 199.173 227.719 199.567 227.185 199.82C226.652 200.073 226.079 200.2 225.465 200.2C224.572 200.2 223.912 199.913 223.485 199.34C223.072 198.767 222.865 198.04 222.865 197.16C222.865 196.573 222.972 196.06 223.185 195.62C223.412 195.167 223.779 194.813 224.285 194.56C224.792 194.307 225.485 194.18 226.365 194.18C226.712 194.18 227.072 194.207 227.445 194.26C227.819 194.3 228.192 194.353 228.565 194.42V193.24C228.565 192.68 228.412 192.3 228.105 192.1C227.799 191.887 227.385 191.78 226.865 191.78C226.465 191.78 226.025 191.833 225.545 191.94C225.079 192.047 224.572 192.213 224.025 192.44L223.365 190.48C224.712 189.933 225.932 189.66 227.025 189.66C228.012 189.66 228.772 189.827 229.305 190.16C229.852 190.493 230.232 190.933 230.445 191.48C230.659 192.027 230.765 192.613 230.765 193.24V197.14C230.765 197.34 230.819 197.533 230.925 197.72C231.045 197.893 231.272 197.98 231.605 197.98H231.825V200.1H231.365ZM225.085 197.12C225.085 197.48 225.165 197.767 225.325 197.98C225.485 198.18 225.719 198.28 226.025 198.28C226.332 198.28 226.679 198.2 227.065 198.04C227.452 197.88 227.952 197.507 228.565 196.92V196.06C227.872 195.94 227.192 195.88 226.525 195.88C226.005 195.88 225.632 195.987 225.405 196.2C225.192 196.413 225.085 196.72 225.085 197.12ZM233.762 197.14V185.2H236.062V197.14C236.062 197.34 236.109 197.533 236.202 197.72C236.309 197.893 236.509 197.98 236.802 197.98H237.122V200.1H236.562C235.802 200.1 235.222 199.953 234.822 199.66C234.422 199.367 234.142 198.993 233.982 198.54C233.836 198.087 233.762 197.62 233.762 197.14ZM245.39 200V198.66C244.776 199.193 244.203 199.587 243.67 199.84C243.136 200.08 242.596 200.2 242.05 200.2C241.143 200.2 240.443 199.893 239.95 199.28C239.456 198.653 239.21 197.78 239.21 196.66V189.86H241.51V196.38C241.51 197.5 241.923 198.06 242.75 198.06C243.083 198.06 243.443 197.98 243.83 197.82C244.23 197.66 244.71 197.353 245.27 196.9V189.86H247.57V200H245.39ZM258.436 199.42C257.743 199.7 257.09 199.9 256.476 200.02C255.863 200.14 255.283 200.2 254.736 200.2C253.23 200.2 252.09 199.773 251.316 198.92C250.543 198.067 250.156 196.933 250.156 195.52V194.32C250.156 193.373 250.33 192.553 250.676 191.86C251.023 191.167 251.516 190.627 252.156 190.24C252.796 189.853 253.55 189.66 254.416 189.66C255.123 189.66 255.783 189.807 256.396 190.1C257.023 190.38 257.53 190.827 257.916 191.44C258.316 192.04 258.516 192.813 258.516 193.76C258.516 194.04 258.496 194.34 258.456 194.66C258.416 194.967 258.35 195.293 258.256 195.64H252.376C252.403 196.467 252.61 197.087 252.996 197.5C253.383 197.913 254.003 198.12 254.856 198.12C255.31 198.12 255.776 198.067 256.256 197.96C256.75 197.853 257.256 197.693 257.776 197.48L258.436 199.42ZM254.416 191.6C253.803 191.6 253.323 191.8 252.976 192.2C252.643 192.587 252.45 193.147 252.396 193.88H256.236C256.25 193.813 256.256 193.753 256.256 193.7C256.256 193.633 256.256 193.573 256.256 193.52C256.256 192.88 256.076 192.4 255.716 192.08C255.356 191.76 254.923 191.6 254.416 191.6ZM271.21 200V198.66C270.597 199.193 270.023 199.587 269.49 199.84C268.957 200.08 268.417 200.2 267.87 200.2C266.963 200.2 266.263 199.893 265.77 199.28C265.277 198.653 265.03 197.78 265.03 196.66V189.86H267.33V196.38C267.33 197.5 267.743 198.06 268.57 198.06C268.903 198.06 269.263 197.98 269.65 197.82C270.05 197.66 270.53 197.353 271.09 196.9V189.86H273.39V200H271.21ZM281.517 191.8C281.183 191.8 280.803 191.88 280.377 192.04C279.95 192.2 279.443 192.513 278.857 192.98V200H276.557V189.86H278.737V191.22C279.363 190.673 279.957 190.28 280.517 190.04C281.077 189.787 281.643 189.66 282.217 189.66C283.19 189.66 283.93 189.973 284.437 190.6C284.943 191.213 285.197 192.08 285.197 193.2V200H282.897V193.48C282.897 192.36 282.437 191.8 281.517 191.8ZM288.176 197.14V185.2H290.476V197.14C290.476 197.34 290.523 197.533 290.616 197.72C290.723 197.893 290.923 197.98 291.216 197.98H291.536V200.1H290.976C290.216 200.1 289.636 199.953 289.236 199.66C288.836 199.367 288.556 198.993 288.396 198.54C288.25 198.087 288.176 197.62 288.176 197.14ZM301.464 199.42C300.77 199.7 300.117 199.9 299.504 200.02C298.89 200.14 298.31 200.2 297.764 200.2C296.257 200.2 295.117 199.773 294.344 198.92C293.57 198.067 293.184 196.933 293.184 195.52V194.32C293.184 193.373 293.357 192.553 293.704 191.86C294.05 191.167 294.544 190.627 295.184 190.24C295.824 189.853 296.577 189.66 297.444 189.66C298.15 189.66 298.81 189.807 299.424 190.1C300.05 190.38 300.557 190.827 300.944 191.44C301.344 192.04 301.544 192.813 301.544 193.76C301.544 194.04 301.524 194.34 301.484 194.66C301.444 194.967 301.377 195.293 301.284 195.64H295.404C295.43 196.467 295.637 197.087 296.024 197.5C296.41 197.913 297.03 198.12 297.884 198.12C298.337 198.12 298.804 198.067 299.284 197.96C299.777 197.853 300.284 197.693 300.804 197.48L301.464 199.42ZM297.444 191.6C296.83 191.6 296.35 191.8 296.004 192.2C295.67 192.587 295.477 193.147 295.424 193.88H299.264C299.277 193.813 299.284 193.753 299.284 193.7C299.284 193.633 299.284 193.573 299.284 193.52C299.284 192.88 299.104 192.4 298.744 192.08C298.384 191.76 297.95 191.6 297.444 191.6ZM307.033 198.2C307.527 198.2 307.933 198.12 308.253 197.96C308.573 197.787 308.733 197.533 308.733 197.2C308.733 196.907 308.627 196.68 308.413 196.52C308.213 196.347 307.847 196.193 307.313 196.06L306.173 195.76C305.293 195.533 304.64 195.153 304.213 194.62C303.8 194.087 303.593 193.453 303.593 192.72C303.593 191.853 303.893 191.127 304.493 190.54C305.093 189.953 306.02 189.66 307.273 189.66C307.78 189.66 308.313 189.72 308.873 189.84C309.433 189.96 310.02 190.153 310.633 190.42L309.973 192.38C309.413 192.113 308.907 191.927 308.453 191.82C308 191.713 307.6 191.66 307.253 191.66C306.307 191.66 305.833 191.98 305.833 192.62C305.833 192.873 305.913 193.073 306.073 193.22C306.247 193.367 306.56 193.5 307.013 193.62L308.153 193.92C309.127 194.173 309.833 194.56 310.273 195.08C310.727 195.6 310.953 196.253 310.953 197.04C310.953 197.973 310.633 198.733 309.993 199.32C309.367 199.907 308.373 200.2 307.013 200.2C305.853 200.2 304.633 199.933 303.353 199.4L303.973 197.5C304.6 197.753 305.167 197.933 305.673 198.04C306.18 198.147 306.633 198.2 307.033 198.2ZM316.154 198.2C316.648 198.2 317.054 198.12 317.374 197.96C317.694 197.787 317.854 197.533 317.854 197.2C317.854 196.907 317.748 196.68 317.534 196.52C317.334 196.347 316.968 196.193 316.434 196.06L315.294 195.76C314.414 195.533 313.761 195.153 313.334 194.62C312.921 194.087 312.714 193.453 312.714 192.72C312.714 191.853 313.014 191.127 313.614 190.54C314.214 189.953 315.141 189.66 316.394 189.66C316.901 189.66 317.434 189.72 317.994 189.84C318.554 189.96 319.141 190.153 319.754 190.42L319.094 192.38C318.534 192.113 318.028 191.927 317.574 191.82C317.121 191.713 316.721 191.66 316.374 191.66C315.428 191.66 314.954 191.98 314.954 192.62C314.954 192.873 315.034 193.073 315.194 193.22C315.368 193.367 315.681 193.5 316.134 193.62L317.274 193.92C318.248 194.173 318.954 194.56 319.394 195.08C319.848 195.6 320.074 196.253 320.074 197.04C320.074 197.973 319.754 198.733 319.114 199.32C318.488 199.907 317.494 200.2 316.134 200.2C314.974 200.2 313.754 199.933 312.474 199.4L313.094 197.5C313.721 197.753 314.288 197.933 314.794 198.04C315.301 198.147 315.754 198.2 316.154 198.2ZM330.539 201C330.099 202.227 329.539 203.107 328.859 203.64C328.179 204.187 327.246 204.46 326.059 204.46V202.16C326.766 202.133 327.319 201.973 327.719 201.68C328.133 201.4 328.439 201.007 328.639 200.5L328.819 200.04L325.199 189.86H327.479L329.219 194.92L329.899 197.06L330.559 194.92L332.219 189.86H334.499L330.539 201ZM344.525 194.32V195.52C344.525 196.933 344.138 198.067 343.365 198.92C342.591 199.773 341.498 200.2 340.085 200.2C338.671 200.2 337.578 199.773 336.805 198.92C336.031 198.067 335.645 196.933 335.645 195.52V194.32C335.645 192.907 336.025 191.78 336.785 190.94C337.558 190.087 338.658 189.66 340.085 189.66C341.511 189.66 342.605 190.087 343.365 190.94C344.138 191.78 344.525 192.907 344.525 194.32ZM342.165 194.32C342.165 193.507 341.985 192.873 341.625 192.42C341.265 191.953 340.751 191.72 340.085 191.72C339.418 191.72 338.905 191.953 338.545 192.42C338.185 192.873 338.005 193.507 338.005 194.32V195.52C338.005 196.333 338.185 196.973 338.545 197.44C338.905 197.907 339.418 198.14 340.085 198.14C340.751 198.14 341.265 197.907 341.625 197.44C341.985 196.973 342.165 196.333 342.165 195.52V194.32ZM353.143 200V198.66C352.53 199.193 351.957 199.587 351.423 199.84C350.89 200.08 350.35 200.2 349.803 200.2C348.897 200.2 348.197 199.893 347.703 199.28C347.21 198.653 346.963 197.78 346.963 196.66V189.86H349.263V196.38C349.263 197.5 349.677 198.06 350.503 198.06C350.837 198.06 351.197 197.98 351.583 197.82C351.983 197.66 352.463 197.353 353.023 196.9V189.86H355.323V200H353.143ZM366.834 200.2C366.501 200.2 366.161 200.167 365.814 200.1C365.481 200.033 365.141 199.94 364.794 199.82V204.26H362.494V189.86H364.674V191.24C365.301 190.613 365.834 190.193 366.274 189.98C366.714 189.767 367.174 189.66 367.654 189.66C368.761 189.66 369.614 190.073 370.214 190.9C370.814 191.727 371.114 192.887 371.114 194.38V195.46C371.114 196.913 370.747 198.067 370.014 198.92C369.281 199.773 368.221 200.2 366.834 200.2ZM367.034 191.8C366.727 191.8 366.401 191.893 366.054 192.08C365.721 192.253 365.301 192.593 364.794 193.1V197.74C365.447 198.007 366.047 198.14 366.594 198.14C367.367 198.14 367.921 197.9 368.254 197.42C368.587 196.94 368.754 196.287 368.754 195.46V194.38C368.754 193.487 368.601 192.833 368.294 192.42C368.001 192.007 367.581 191.8 367.034 191.8ZM379.823 200V198.66C379.21 199.193 378.636 199.587 378.103 199.84C377.57 200.08 377.03 200.2 376.483 200.2C375.576 200.2 374.876 199.893 374.383 199.28C373.89 198.653 373.643 197.78 373.643 196.66V189.86H375.943V196.38C375.943 197.5 376.356 198.06 377.183 198.06C377.516 198.06 377.876 197.98 378.263 197.82C378.663 197.66 379.143 197.353 379.703 196.9V189.86H382.003V200H379.823ZM391.27 199.66C390.923 199.82 390.523 199.947 390.07 200.04C389.617 200.147 389.157 200.2 388.69 200.2C387.917 200.2 387.297 200.04 386.83 199.72C386.363 199.4 386.023 198.953 385.81 198.38C385.61 197.807 385.51 197.153 385.51 196.42V191.86H383.87V189.86H385.51V187.22H387.81V189.86H390.97V191.86H387.81V196.42C387.81 197.033 387.923 197.46 388.15 197.7C388.39 197.927 388.73 198.04 389.17 198.04C389.383 198.04 389.61 198.02 389.85 197.98C390.103 197.927 390.383 197.84 390.69 197.72L391.27 199.66ZM399.483 187.94H397.063V185.56H399.483V187.94ZM399.423 200H397.123V189.86H399.423V200ZM408.692 199.66C408.345 199.82 407.945 199.947 407.492 200.04C407.038 200.147 406.578 200.2 406.112 200.2C405.338 200.2 404.718 200.04 404.252 199.72C403.785 199.4 403.445 198.953 403.232 198.38C403.032 197.807 402.932 197.153 402.932 196.42V191.86H401.292V189.86H402.932V187.22H405.232V189.86H408.392V191.86H405.232V196.42C405.232 197.033 405.345 197.46 405.572 197.7C405.812 197.927 406.152 198.04 406.592 198.04C406.805 198.04 407.032 198.02 407.272 197.98C407.525 197.927 407.805 197.84 408.112 197.72L408.692 199.66ZM416.905 187.94H414.485V185.56H416.905V187.94ZM416.845 200H414.545V189.86H416.845V200ZM424.974 191.8C424.64 191.8 424.26 191.88 423.834 192.04C423.407 192.2 422.9 192.513 422.314 192.98V200H420.014V189.86H422.194V191.22C422.82 190.673 423.414 190.28 423.974 190.04C424.534 189.787 425.1 189.66 425.674 189.66C426.647 189.66 427.387 189.973 427.894 190.6C428.4 191.213 428.654 192.08 428.654 193.2V200H426.354V193.48C426.354 192.36 425.894 191.8 424.974 191.8ZM437.793 199.66C437.447 199.82 437.047 199.947 436.593 200.04C436.14 200.147 435.68 200.2 435.213 200.2C434.44 200.2 433.82 200.04 433.353 199.72C432.887 199.4 432.547 198.953 432.333 198.38C432.133 197.807 432.033 197.153 432.033 196.42V191.86H430.393V189.86H432.033V187.22H434.333V189.86H437.493V191.86H434.333V196.42C434.333 197.033 434.447 197.46 434.673 197.7C434.913 197.927 435.253 198.04 435.693 198.04C435.907 198.04 436.133 198.02 436.373 197.98C436.627 197.927 436.907 197.84 437.213 197.72L437.793 199.66ZM447.943 194.32V195.52C447.943 196.933 447.556 198.067 446.783 198.92C446.009 199.773 444.916 200.2 443.503 200.2C442.089 200.2 440.996 199.773 440.223 198.92C439.449 198.067 439.063 196.933 439.063 195.52V194.32C439.063 192.907 439.443 191.78 440.203 190.94C440.976 190.087 442.076 189.66 443.503 189.66C444.929 189.66 446.023 190.087 446.783 190.94C447.556 191.78 447.943 192.907 447.943 194.32ZM445.583 194.32C445.583 193.507 445.403 192.873 445.043 192.42C444.683 191.953 444.169 191.72 443.503 191.72C442.836 191.72 442.323 191.953 441.963 192.42C441.603 192.873 441.423 193.507 441.423 194.32V195.52C441.423 196.333 441.603 196.973 441.963 197.44C442.323 197.907 442.836 198.14 443.503 198.14C444.169 198.14 444.683 197.907 445.043 197.44C445.403 196.973 445.583 196.333 445.583 195.52V194.32ZM458.865 200.2C458.532 200.2 458.192 200.167 457.845 200.1C457.512 200.033 457.172 199.94 456.825 199.82V204.26H454.525V189.86H456.705V191.24C457.332 190.613 457.865 190.193 458.305 189.98C458.745 189.767 459.205 189.66 459.685 189.66C460.792 189.66 461.645 190.073 462.245 190.9C462.845 191.727 463.145 192.887 463.145 194.38V195.46C463.145 196.913 462.779 198.067 462.045 198.92C461.312 199.773 460.252 200.2 458.865 200.2ZM459.065 191.8C458.759 191.8 458.432 191.893 458.085 192.08C457.752 192.253 457.332 192.593 456.825 193.1V197.74C457.479 198.007 458.079 198.14 458.625 198.14C459.399 198.14 459.952 197.9 460.285 197.42C460.619 196.94 460.785 196.287 460.785 195.46V194.38C460.785 193.487 460.632 192.833 460.325 192.42C460.032 192.007 459.612 191.8 459.065 191.8ZM471.534 191.96C470.908 191.96 470.308 192.06 469.734 192.26C469.174 192.447 468.634 192.753 468.114 193.18V200H465.814V189.86H467.994V191.42C468.674 190.78 469.281 190.327 469.814 190.06C470.348 189.793 470.921 189.66 471.534 189.66V191.96ZM481.229 200.1C480.549 200.1 480.002 199.96 479.589 199.68C479.189 199.4 478.895 199.053 478.709 198.64C478.135 199.173 477.582 199.567 477.049 199.82C476.515 200.073 475.942 200.2 475.329 200.2C474.435 200.2 473.775 199.913 473.349 199.34C472.935 198.767 472.729 198.04 472.729 197.16C472.729 196.573 472.835 196.06 473.049 195.62C473.275 195.167 473.642 194.813 474.149 194.56C474.655 194.307 475.349 194.18 476.229 194.18C476.575 194.18 476.935 194.207 477.309 194.26C477.682 194.3 478.055 194.353 478.429 194.42V193.24C478.429 192.68 478.275 192.3 477.969 192.1C477.662 191.887 477.249 191.78 476.729 191.78C476.329 191.78 475.889 191.833 475.409 191.94C474.942 192.047 474.435 192.213 473.889 192.44L473.229 190.48C474.575 189.933 475.795 189.66 476.889 189.66C477.875 189.66 478.635 189.827 479.169 190.16C479.715 190.493 480.095 190.933 480.309 191.48C480.522 192.027 480.629 192.613 480.629 193.24V197.14C480.629 197.34 480.682 197.533 480.789 197.72C480.909 197.893 481.135 197.98 481.469 197.98H481.689V200.1H481.229ZM474.949 197.12C474.949 197.48 475.029 197.767 475.189 197.98C475.349 198.18 475.582 198.28 475.889 198.28C476.195 198.28 476.542 198.2 476.929 198.04C477.315 197.88 477.815 197.507 478.429 196.92V196.06C477.735 195.94 477.055 195.88 476.389 195.88C475.869 195.88 475.495 195.987 475.269 196.2C475.055 196.413 474.949 196.72 474.949 197.12ZM485.445 194.34V195.52C485.445 196.373 485.599 197.013 485.905 197.44C486.212 197.867 486.705 198.08 487.385 198.08C487.719 198.08 488.092 198.04 488.505 197.96C488.932 197.867 489.392 197.727 489.885 197.54L490.545 199.48C489.945 199.72 489.379 199.9 488.845 200.02C488.312 200.14 487.785 200.2 487.265 200.2C485.932 200.2 484.912 199.773 484.205 198.92C483.499 198.067 483.145 196.933 483.145 195.52V194.34C483.145 192.913 483.499 191.78 484.205 190.94C484.912 190.087 485.932 189.66 487.265 189.66C487.772 189.66 488.285 189.72 488.805 189.84C489.325 189.96 489.872 190.133 490.445 190.36L489.785 192.34C488.825 191.967 488.025 191.78 487.385 191.78C486.705 191.78 486.212 191.993 485.905 192.42C485.599 192.833 485.445 193.473 485.445 194.34ZM498.75 199.66C498.404 199.82 498.004 199.947 497.55 200.04C497.097 200.147 496.637 200.2 496.17 200.2C495.397 200.2 494.777 200.04 494.31 199.72C493.844 199.4 493.504 198.953 493.29 198.38C493.09 197.807 492.99 197.153 492.99 196.42V191.86H491.35V189.86H492.99V187.22H495.29V189.86H498.45V191.86H495.29V196.42C495.29 197.033 495.404 197.46 495.63 197.7C495.87 197.927 496.21 198.04 496.65 198.04C496.864 198.04 497.09 198.02 497.33 197.98C497.584 197.927 497.864 197.84 498.17 197.72L498.75 199.66ZM502.96 187.94H500.54V185.56H502.96V187.94ZM502.9 200H500.6V189.86H502.9V200ZM507.828 194.34V195.52C507.828 196.373 507.982 197.013 508.288 197.44C508.595 197.867 509.088 198.08 509.768 198.08C510.102 198.08 510.475 198.04 510.888 197.96C511.315 197.867 511.775 197.727 512.268 197.54L512.928 199.48C512.328 199.72 511.762 199.9 511.228 200.02C510.695 200.14 510.168 200.2 509.648 200.2C508.315 200.2 507.295 199.773 506.588 198.92C505.882 198.067 505.528 196.933 505.528 195.52V194.34C505.528 192.913 505.882 191.78 506.588 190.94C507.295 190.087 508.315 189.66 509.648 189.66C510.155 189.66 510.668 189.72 511.188 189.84C511.708 189.96 512.255 190.133 512.828 190.36L512.168 192.34C511.208 191.967 510.408 191.78 509.768 191.78C509.088 191.78 508.595 191.993 508.288 192.42C507.982 192.833 507.828 193.473 507.828 194.34ZM522.733 199.42C522.04 199.7 521.386 199.9 520.773 200.02C520.16 200.14 519.58 200.2 519.033 200.2C517.526 200.2 516.386 199.773 515.613 198.92C514.84 198.067 514.453 196.933 514.453 195.52V194.32C514.453 193.373 514.626 192.553 514.973 191.86C515.32 191.167 515.813 190.627 516.453 190.24C517.093 189.853 517.846 189.66 518.713 189.66C519.42 189.66 520.08 189.807 520.693 190.1C521.32 190.38 521.826 190.827 522.213 191.44C522.613 192.04 522.813 192.813 522.813 193.76C522.813 194.04 522.793 194.34 522.753 194.66C522.713 194.967 522.646 195.293 522.553 195.64H516.673C516.7 196.467 516.906 197.087 517.293 197.5C517.68 197.913 518.3 198.12 519.153 198.12C519.606 198.12 520.073 198.067 520.553 197.96C521.046 197.853 521.553 197.693 522.073 197.48L522.733 199.42ZM518.713 191.6C518.1 191.6 517.62 191.8 517.273 192.2C516.94 192.587 516.746 193.147 516.693 193.88H520.533C520.546 193.813 520.553 193.753 520.553 193.7C520.553 193.633 520.553 193.573 520.553 193.52C520.553 192.88 520.373 192.4 520.013 192.08C519.653 191.76 519.22 191.6 518.713 191.6Z" fill="black"/>
</svg>
