<svg version="1.1" xmlns="http://www.w3.org/2000/svg" xmlns:xlink="http://www.w3.org/1999/xlink" x="0px" y="0px"
	viewBox="0 0 500 500" style="enable-background:new 0 0 500 500;" xml:space="preserve">
	<style>
		.st0{fill:#71DBD6;}
		.st1{fill:#F9D499;}
		.st2{fill:#12BC00;}
		.st3{fill:#D3D1CD;}
		.st4{fill:#2B2D30;}
		.st5{fill:#B3B3B3;}
		.st6{fill:#FEFEFE;}
		.st7{fill:#2E3032;}
		.st8{fill:#2D2F32;}
		.st9{fill:#2B2E31;}


		#Retina1,#Retina2 {
		  -webkit-animation-name: blink;
		  -webkit-animation-duration: 6s;
		  -webkit-animation-iteration-count: infinite; 
		  -webkit-transform-origin: 50%;
		  
		  animation-name: blink;
		  animation-duration: 6s;
		  animation-iteration-count: infinite; 
		  transform-origin: 50%;
		}

		@-webkit-keyframes blink { 
		  0% { -webkit-transform: scaleX(1) scaleY(1); } 
		  1% { -webkit-transform: scaleX(1.3) scaleY(0.1); } 
		  2% { -webkit-transform: scaleX(1) scaleY(1); } 
		  60% { -webkit-transform: scaleX(1) scaleY(1); } 
		  61% { -webkit-transform: scaleX(1.3) scaleY(0.1);} 
		  62% { -webkit-transform: scaleX(1) scaleY(1); } 
		  100% { -webkit-transform: scaleX(1) scaleY(1); }
		}


		@keyframes blink { 
		  0% { transform: scaleX(1) scaleY(1); } 
		  1% { transform: scaleX(1.3) scaleY(0.1); } 
		  2% { transform: scaleX(1) scaleY(1); } 
		  60% { transform: scaleX(1) scaleY(1); } 
		  61% { transform: scaleX(1.3) scaleY(0.1);} 
		  62% { transform: scaleX(1) scaleY(1); } 
		  100% { transform: scaleX(1) scaleY(1); }
		}
	</style>
	<g id="Sanky">
		<path id="XMLID_29_" class="st1" d="M225.3,277.5c2.3,6.2,15.8,6.2,21.3,6c6.8-0.2,14.8-0.2,20.5-4.2c0,0,0,0,0,0
		c0.1-0.5,0.3-0.8,0.6-0.9c-0.1-1.8-0.3-3.6-0.7-5.5c-0.1,0.1-0.3,0.2-0.4,0.3c-5.7,3.5-13.6,2.4-20,3.1c-3,0.3-7.2,0.6-10.1-0.4
		c-2.8-0.9-4.2-3.4-6.1-5.5c-0.1-0.1-0.3-0.3-0.4-0.4c-0.7-0.3-1.2-0.6-1.5-1c-0.3-0.4-0.9-0.5-1.9-1c-0.6,3.1-1.1,6.2-1.3,9.2
		C225.3,277.2,225.4,277.4,225.3,277.5z"/>
		<path id="Shirt" class="st2" d="M388.6,445.2c-17.3,0.1-34.6,0.3-51.9,0.4c0.5-1.5,1.4-3,1.5-4.5c0.4-9.3,0.6-18.6,0.9-28
		c6.1-1.2,12.2-2.5,19.5-3.9c-6.4-12.6-12.4-24.4-18.3-36.2c-0.1-5.1-0.4-10.3-0.1-15.4c0.3-5.4-1-9.4-6.5-11.4
		c-4.6,1.4-7.5-0.3-9.4-4.6c-1.8-4-4.1-7.9-6.1-11.8c-0.5,0.1-0.5,0.1-1,0.2l-1.3,16.1c-6.1,0.3-12.2,1-18.3,1
		c-34.7,0.1-69.5,0.1-104.2,0c-5.3,0-10.6-0.5-15.9-0.8c-0.2-5.5-0.5-10.9-0.7-16.4c-3.2,3.9-5.5,7.8-7.4,12
		c-1.9,4.1-4.6,5.8-8.9,4.3c-5.9,1.5-7,5.8-6.9,11c0.1,5-0.1,10-0.1,14.9c-5.8,12.1-11.7,24.2-17.8,37c7.2,1.4,13.2,2.6,19.1,3.8
		c0.1,6.8,0,13.6,0.3,20.4c0.2,4.1,0.9,8.1,1.4,12.2c-18.1,0-36.2,0-54.3,0c-1.1,0-2.3-0.3-3.4-0.4c-7-4.6-8.9-11.3-7.7-19.1
		c0.5-3.4,1.5-6.9,3-10c8.6-18.1,17.4-36.1,26.1-54.2c5-10.4,9.9-20.9,14.9-31.3c1.2-1.5,2.5-3,3.4-4.6c6.2-11.2,12-22.6,18.8-33.4
		c2-3.2,6.5-6.8,10.1-7.9c19-5.8,38.6-8.6,58.5-8.5c-4.5,9.3,47.3,9.1,41.3,0.1c20.1-0.3,39.7,2.8,59,8.2c4.5,1.3,8.4,3.7,10.8,8.2
		c6.7,12.6,13.6,25.2,20.5,37.6c0.6,1.1,2.2,1.6,3.3,2.4c0.5,2.1,0.7,4.3,1.6,6.1c10.3,21,20.6,42,31,63.4
		c1.3,1.8,8.3,12.1,5.4,25.6C396.8,437.4,390.8,443.2,388.6,445.2z"/>
		<g id="Laptop">
			<path id="XMLID_3_" class="st3" d="M158.2,445.6c-0.5-4.1-1.2-8.1-1.4-12.2c-0.3-6.8-0.2-13.6-0.3-20.4
			c-0.4-13.6-0.9-27.2-1.3-40.8c0-5,0.2-10,0.1-14.9c-0.1-5.2,1.1-9.6,6.9-11c5.7,0.1,11.4,0.1,17.1,0.2c5.3,0.3,10.6,0.8,15.9,0.8
			c34.7,0.1,69.5,0.1,104.2,0c6.1,0,21.8-0.2,23.5-0.3c4.2-0.1,8.4-0.4,12.6-0.6c5.4,1.9,6.8,6,6.5,11.4c-0.3,5.1,0,10.3,0.1,15.4
			c-0.4,13.4-0.8,26.7-1.2,40.1c-0.3,9.3-0.5,18.6-0.9,28c-0.1,1.5-1,3-1.5,4.5C278.4,445.6,218.3,445.6,158.2,445.6z"/>
			<g id="XMLID_2_">
				<path id="XMLID_5_" class="st4" d="M224.5,402.6v-3l17.1-7.2v3.1l-13.5,5.6l13.5,5.6v3.1L224.5,402.6z"/>
				<path id="XMLID_8_" class="st4" d="M243.6,414.3l7.5-26.6h2.5l-7.5,26.6H243.6z"/>
				<path id="XMLID_10_" class="st4" d="M272.6,402.6l-17.1,7.3v-3.1l13.5-5.6l-13.5-5.6v-3.1l17.1,7.2V402.6z"/>
			</g>
			<path id="XMLID_6_" class="st5" d="M158.2,453.1c-0.5-0.3-1.2-0.6-1.4-0.9c-0.3-0.5-0.2-1-0.3-1.5c-0.4-1-0.9-2-1.3-3.1
			c0-0.4,0.2-0.7,0.1-1.1c-0.1-0.4,1.1-0.7,6.9-0.8c5.7,0,11.4,0,17.1,0c5.3,0,10.6,0.1,15.9,0.1c34.7,0,69.5,0,104.2,0
			c6.1,0,21.8,0,23.5,0c4.2,0,8.4,0,12.6,0c5.4,0.1,6.8,0.5,6.5,0.9c-0.3,0.4,0,0.8,0.1,1.2c-0.4,1-0.8,2-1.2,3
			c-0.3,0.7-0.5,1.4-0.9,2.1c-0.1,0.1-1,0.2-1.5,0.3C278.4,453.1,218.3,453.1,158.2,453.1z"/>
		</g>
		<g id="Face">
			<path id="XMLID_118_" class="st1" d="M309.3,184.9c1.2-0.1,2.3-0.2,3.7-0.3c0.2,1,0.6,2.1,0.8,3.3c0.9,4-0.1,7.7-1.3,11.5
			c-1.5,4.9-3.8,9.4-6.6,13.6c-0.1,0.1-0.2,0.2-0.3,0.4c-1.3,1.6-1.9,1.7-3.4,0.4c-0.7-0.6-1.5-0.7-2.4-0.6c-0.5,0.1-1,0.3-1.5,0.5
			c-1.4,0.7-1.1,2-0.9,3.1c0.9,4.1,1.7,8.3,2.7,12.3c0.4,1.7,0.2,3.1-0.8,4.4c-2,2.5-4,5-6.1,7.4c-4.9,5.5-9.8,11-14.8,16.5
			c-4.4,4.8-9,9.5-13.4,14.2c-1.2,1.3-2.8,1.8-4.5,1.9c-2.6,0-5.2-0.1-7.8-0.2c-2.3,0-4.6-0.1-6.8-0.1c-2.2,0-4.5,0-6.7,0.1
			c-2.4,0.1-4.3-0.8-5.9-2.4c-3.4-3.3-6.7-6.5-10-9.9c-8.6-8.7-17.3-17.2-26.4-25.3c-0.4-0.3-0.7-0.7-1.1-1
			c-1.1-0.7-1.4-1.7-1.3-2.9c0.1-2.8,0.2-5.5,0.4-8.3c0.2-2.4,0.6-4.7,0.7-7.1c0.1-1.3,0-2.6-0.2-3.8c0-0.3-0.5-0.6-0.7-0.7
			c-1.6-0.2-3.1-0.1-4.3,1.3c-0.2,0.2-0.8,0.2-1.1,0.2c-1.2-0.2-2.1-1-2.8-1.9c-1.9-2.4-3.1-5.1-4.1-7.9c-1.9-5.4-3.8-10.8-5.6-16.3
			c-0.6-1.7,0.1-3,1.7-3.7c0.2-0.1,0.4-0.1,0.6-0.1c0.6-0.1,1.2-0.2,1.8-0.3c0.3,0,0.8,0.1,1,0.3c0.6,0.8,1.3,1.1,2.3,1.1
			c0.6,0,1.2,0,1.8,0c0.2,1.5,0.3,3,0.6,4.4c0.8,5.3,2.2,10.5,4.7,15.2c2.4,4.6,6.3,7.5,11.1,9.2c3.4,1.2,6.9,1.9,10.6,2.2
			c4.4,0.3,8.8,0.1,13-1.2c7.3-2.2,11.9-7.2,13.9-14.5c0.7-2.7,1.2-5.5,1.9-8.3c0.4-1.4,1-2.8,1.7-4c1.8-3,6.6-3.4,8.7,0
			c1.2,1.9,1.8,4.1,2.4,6.3c0.8,2.9,1.3,5.9,2.4,8.7c2.7,6.9,7.9,10.9,15.1,12.4c3.9,0.8,7.8,1,11.8,0.6c5.4-0.5,10.6-1.9,15.2-4.9
			c3-2,4.9-4.9,6.4-8c1.9-3.9,3-8.1,3.7-12.4C308.8,188.7,309,186.8,309.3,184.9z M262.1,211.8c-1.4,0.5-2.8,1.1-4.2,1.6
			c-1.8,0.6-3.6,0.6-5.4-0.2c-1.4-0.7-3-1.1-4.5-1.6c-0.8-0.3-1.6-0.3-2.3,0.2c-0.8,0.5-0.9,0.8,0,1.2c1.7,0.8,3.3,1.6,5,2.2
			C255.4,216.7,259.7,214.9,262.1,211.8c0.1,0,0.1,0,0.1-0.1C262.2,211.7,262.1,211.7,262.1,211.8z M237.9,224.9
			c0,0-0.1,0.1-0.1,0.1c0.3,0.2,0.5,0.4,0.8,0.6c6.1,4.5,12.9,7.1,20.5,7.8c1,0.1,2.1,0,3.2-0.1c0.7-0.1,0.9-0.6,0.3-1.1
			c-0.2-0.2-0.5-0.4-0.8-0.5c-0.6-0.2-1.3-0.3-1.9-0.3c-2.1-0.2-4.1-0.3-6.2-0.7c-5.3-1-10.3-3-15.1-5.4
			C238.3,225.1,238.1,225,237.9,224.9z M256.8,241.9c-0.4,0-0.7-0.1-1,0c-2.4,0.6-4.9,1.1-7.2,1.8c-1.1,0.3-2.1,1-3,1.6
			c-0.5,0.3-0.7,1-0.4,1.6c0.3,0.6,1,0.9,1.7,0.7c0.4-0.1,0.8-0.4,1.2-0.6c0.8-0.5,1.5-1.2,2.3-1.7
			C252.5,244.3,254.6,243.1,256.8,241.9z M237.7,224.8C237.7,224.8,237.7,224.8,237.7,224.8C237.7,224.8,237.7,224.8,237.7,224.8
			C237.6,224.8,237.6,224.8,237.7,224.8C237.6,224.8,237.6,224.8,237.7,224.8z"/>
			<path id="XMLID_114_" class="st1" d="M300.5,167.9c-2-0.4-3.9-0.9-5.8-1.2c-2.1-0.3-4.2-0.6-6.3-0.7c-2.7-0.2-5.4-0.2-8.1-0.1
			c-3.3,0.1-6.6,0.4-9.8,0.7c-6.1,0.7-12.1,2.1-17.8,4.2c-1.4,0.5-2.8,1.1-4.2,1.5c-1.2,0.4-2.4,0.1-3.6-0.4
			c-5.4-2.4-11.1-3.9-17-4.9c-3.4-0.5-6.8-0.9-10.2-1.1c-3.4-0.2-6.8-0.3-10.2-0.1c-4.5,0.2-8.9,0.9-13.2,2.1
			c-0.5,0.2-0.7,0.1-1-0.4c-1.3-2.7-1.6-5.6-2-8.5c-0.7-5.3-1-10.5-0.9-15.8c0-1.2,0.1-2.5,0.2-3.7c0-0.7,0.4-1.2,1-1.6
			c2.3-1.6,4.9-2.6,7.5-3.5c2.3-0.8,4.6-1.6,7.1-1.3c1.9,0.2,3.8,0.5,5.7,0.8c3.7,0.7,7.4,1.4,11.1,2c3.1,0.6,6.1,1.1,9.2,1.6
			c2.3,0.4,4.5,0.7,6.8,1c2.2,0.3,4.5,0.6,6.7,0.7c2.6,0.2,5.2,0.2,7.8,0.1c2.2,0,4.5-0.2,6.7-0.4c2.5-0.3,5-0.6,7.4-1
			c4.7-0.9,9.3-1.9,14-3.1c2.8-0.7,5.6-1.7,8.4-2.5c2-0.5,4-0.8,6-0.2c1.4,0.4,2.4,1.3,2.9,2.7c1.2,3.6,2.1,7.2,2.6,10.9
			c0.5,4.2,0.7,8.3,0.3,12.5c-0.2,2.6-0.6,5.3-0.9,7.9C300.8,166.6,300.6,167.3,300.5,167.9z M293.7,164c-0.9-0.3-1.9-0.6-2.8-0.9
			c-7.3-2.2-14.5-5-22-6.4c-1.4-0.3-2.8-0.4-4.2-0.5c-1.4-0.1-2.6,0.8-2.8,2.1c-0.3,1.3-0.3,2.6-0.4,3.9c0,0.6,0.3,0.9,1,1
			c2.1,0.2,4.2,0.6,6.3,0.8c1.9,0.2,3.9,0.6,5.9,0.6c6,0.1,11.9,0,17.9,0C293,164.7,293.4,164.6,293.7,164z M236.7,167.9
			c-0.4-1.7-0.7-3.4-1.1-5.1c-0.2-0.8-0.6-1.3-1.3-1.7c-1.4-0.8-2.9-1.2-4.4-1c-2.2,0.2-4.3,0.5-6.5,0.8c-3.6,0.4-7.2,0.9-10.8,1.3
			c-3.5,0.4-7,0.6-10.5,1c-1.4,0.2-2.9,0.6-4.3,0.9c-0.2,0.1-0.5,0.5-0.5,0.8c0.1,0.4,0.3,0.8,0.9,0.7c2-0.2,4-0.5,6-0.6
			c3.1-0.1,6.2-0.2,9.3-0.2c1.9,0,3.9,0.1,5.8,0.3c2.5,0.3,4.9,0.6,7.4,1C230,166.8,233.3,167.4,236.7,167.9z"/>
			<path id="XMLID_111_" class="st6" d="M278.9,212.9c-3.7-0.2-7.4-0.7-10.8-2.3c-5.6-2.6-8.8-7.1-10-13c-0.6-3.2-1.1-6.4-1.5-9.6
			c-0.3-2.8-0.4-5.6,0.2-8.3c0.4-1.9,1.4-3.3,3.1-4.3c2.7-1.6,5.6-2.5,8.6-3.2c5.5-1.2,11.1-1.6,16.7-1.3c3.8,0.2,7.5,0.4,11.2,1.5
			c2.1,0.6,4,1.5,5.5,3c2.3,2.2,3.3,5,3.3,8.1c0,2.3-0.2,4.7-0.4,7c-0.3,3.3-1,6.6-2.4,9.6c-3,6.7-8.3,10.6-15.5,11.9
			C284.3,212.4,281.6,212.6,278.9,212.9z M277.1,191c0,0-0.1-0.1-0.1-0.1c0.3-1.1,0.6-2.2,1-3.2c0.3-1.1,0.7-2.1,1-3.2
			c-3.5-1.1-7.2,0.6-8.7,4c-1.5,3.5,0,7.4,3.3,9.1c3.3,1.7,7.4,0.6,9.4-2.6c1.9-2.9,1.1-6.9-1-8.6
			C280.4,187.9,278.7,189.5,277.1,191z"/>
			<path id="XMLID_108_" class="st6" d="M238.4,184.3c-0.1,3.6-0.6,7.1-1.2,10.6c-0.4,2.2-0.8,4.5-1.7,6.6
			c-2.4,5.6-6.8,8.9-12.6,10.4c-3.8,0.9-7.7,1-11.5,0.5c-3-0.4-6-0.8-8.8-2.1c-5.6-2.4-9-6.8-11-12.4c-1-2.9-1.5-5.9-1.7-9
			c-0.1-2-0.3-3.9-0.3-5.9c0.1-5.1,2.8-8.4,7.5-10.3c2.3-0.9,4.7-1.4,7.2-1.5c3.4-0.2,6.8-0.5,10.2-0.4c5.9,0.1,11.8,0.8,17.4,3
			c0.9,0.4,1.8,0.8,2.7,1.3c2.3,1.2,3.3,3.1,3.7,5.6C238.3,181.9,238.3,183.1,238.4,184.3z M218.4,184.5c-3.2-1.2-7.1,0.5-8.6,3.7
			c-1.6,3.4-0.3,7.4,2.9,9.2c3.2,1.8,7.4,0.9,9.5-2.2c1.9-2.8,1.6-7-0.8-8.9c-1.6,1.5-3.2,3.1-4.9,4.6c-0.1,0-0.1-0.1-0.2-0.1
			C217.1,188.7,217.8,186.6,218.4,184.5z"/>
			<path id="XMLID_107_" class="st7" d="M237.9,224.9c0.2,0.1,0.4,0.2,0.6,0.3c4.8,2.4,9.8,4.4,15.1,5.4c2,0.4,4.1,0.5,6.2,0.7
			c0.6,0.1,1.3,0.2,1.9,0.3c0.3,0.1,0.6,0.3,0.8,0.5c0.5,0.5,0.4,1-0.3,1.1c-1.1,0.1-2.1,0.2-3.2,0.1c-7.6-0.7-14.4-3.3-20.5-7.8
			c-0.3-0.2-0.5-0.4-0.8-0.6C237.8,224.9,237.9,224.9,237.9,224.9z"/>
			<path id="XMLID_106_" class="st8" d="M262.1,211.9c-2.4,3-6.7,4.8-11.3,3.3c-1.7-0.5-3.4-1.4-5-2.2c-0.9-0.4-0.8-0.8,0-1.2
			c0.8-0.5,1.5-0.5,2.3-0.2c1.5,0.5,3,1,4.5,1.6c1.8,0.8,3.6,0.8,5.4,0.2C259.3,212.9,260.7,212.3,262.1,211.9
			C262.1,211.8,262.1,211.8,262.1,211.9z"/>
			<path id="XMLID_105_" class="st7" d="M256.8,241.9c-2.2,1.2-4.4,2.3-6.5,3.5c-0.8,0.5-1.5,1.1-2.3,1.7c-0.4,0.3-0.8,0.5-1.2,0.6
			c-0.7,0.2-1.4-0.2-1.7-0.7c-0.3-0.7-0.2-1.3,0.4-1.6c1-0.6,2-1.3,3-1.6c2.4-0.7,4.8-1.3,7.2-1.8
			C256.1,241.9,256.4,241.9,256.8,241.9z"/>
		</g>
		<path id="Glasses" class="st9" d="M314.3,175c-0.1-0.6-0.6-1.2-1.2-1.4c-5.8-2.6-14.9-8.4-34.3-7.6c-14.8,0.6-24.6,4.2-28.9,6.1
		c-1.6,0.7-3.3,0.7-4.9,0c-4.3-1.9-14.1-5.5-28.9-6.1c-19.4-0.8-28.4,5-34.3,7.6c-0.6,0.3-1.1,0.8-1.2,1.4c-0.4,1.7-0.7,5.4,2.3,9.2
		c0.4,0.5,1,0.8,1.6,0.8h2.1c0,0,1.1,19.2,10.6,25.7c9.5,6.5,24.9,6.2,32.1,2.6c5-2.6,8.5-6.6,10.3-12.7c1.8-6.1,1.5-14.9,8-14.9
		c5.7,0,6.2,8.8,8,14.9c1.8,6.1,5.3,10.1,10.3,12.7c7.1,3.6,22.6,3.9,32.1-2.6c9.5-6.5,10.5-25.7,10.5-25.7h2.1
		c0.6,0,1.2-0.3,1.6-0.8C315,180.4,314.7,176.7,314.3,175z M237.1,196.7c-1.7,10.3-10.3,18.4-28.9,14.8c-16.4-3.1-17-19.9-17.3-22.9
		c-0.4-4.6-2.6-15.2,13-17c16-1.9,28.9,1.4,32.7,5.1C240.3,180.3,237.8,192.1,237.1,196.7z M304.1,188.6
		c-0.3,3.1-0.9,19.8-17.3,22.9c-18.6,3.6-27.2-4.5-28.9-14.8c-0.8-4.6-3.2-16.4,0.5-20.1c3.8-3.7,16.6-7,32.7-5.1
		C306.7,173.4,304.5,184,304.1,188.6z"/>
		<path id="Eyebrow2" class="st9" d="M198.6,165.9c0,0,12.5-1.7,24.6,0c12.1,1.7,13.7,2.4,13.7,2.4s-0.7-5.6-1.6-6.4
		c-1-0.8-3.3-1.9-5.8-1.5c-2.6,0.4-15.8,2.2-20.9,2.4c-5.2,0.3-8.7,1-9.9,1.5C197.4,164.8,198.6,165.9,198.6,165.9z"/>
		<path id="Eybrow1" class="st9" d="M261.7,163.4c0,0,11.7,1.6,13,1.6c1.4,0,15-0.3,17.8,0l0.7-0.8c0,0-7.3-2.2-12.1-3.9
		c-4.8-1.7-13.5-3.7-15.8-3.9c-2.3-0.1-3.4,1-3.7,2.2S260.8,162.6,261.7,163.4z"/>
		<path id="Hair" class="st9" d="M194,167.1l-6.9,2.3c0,0-5.1-22.4-6.6-29.4c-1.5-6.9,0-14.5,1.9-17.3c1.9-2.7,21.6-25.8,32.5-36.6
		s18.1-16.3,19.2-16.4c1.1-0.1,3,4.2,3,4.2s1.5-4.8,1-7.7c-0.5-3-0.7-5.4-0.7-5.4s8.4,0.8,13.3,9.2c0,0,0.5-4.6-1.1-8.2
		c0,0,6.4,1.1,10.6,9.9c0,0,1.4-3.7,0-5.6c0,0,4.3-0.1,10.3,7.6c0,0,2-1.6,3.8,0.4c1.8,2,19.2,22.7,29.6,42.5c0,0,6.1,10.2,7.1,12
		c1,1.8-2.9,32.5-3.9,40.6c0,0-4.5-1.9-6.9-2.6c0,0,3.7-16-1.9-31.5c0,0-0.7-5.2-10.9-1.8c-10.2,3.4-25.6,6.9-39.7,6.3
		c-14.1-0.7-37.1-6.4-41.4-6.3c-4.3,0.1-13.7,4.1-14.3,5.8C191.3,141.1,191.3,158.6,194,167.1z"/>
		<path id="Retina2" class="st6" d="M222,186.3l-5.1,4.9l2.1-6.7c-0.7-0.2-1.3-0.3-2.1-0.3c-3.9,0-7.1,3.2-7.1,7.1
		c0,3.9,3.2,7.1,7.1,7.1c3.9,0,7.1-3.2,7.1-7.1C224,189.2,223.3,187.5,222,186.3z"/>
		<path id="Retina1" class="st6" d="M281.6,186.3l-5.1,4.9l2.1-6.7c-0.7-0.2-1.3-0.3-2.1-0.3c-3.9,0-7.1,3.2-7.1,7.1
		c0,3.9,3.2,7.1,7.1,7.1c3.9,0,7.1-3.2,7.1-7.1C283.5,189.2,282.8,187.5,281.6,186.3z"/>
	</g>
</svg>